<svg id="Layer_1" data-name="Layer 1" xmlns="http://www.w3.org/2000/svg" viewBox="0 0 537.65 445.27"><defs><style>.cls-1{fill:#e0e0e0;}.cls-2{fill:#f5f5f5;}.cls-3,.cls-8{fill:none;stroke-miterlimit:10;stroke-width:0.05px;}.cls-3{stroke:#e0e0e0;}.cls-4{fill:#ebebeb;}.cls-5{fill:#fff;}.cls-6{fill:#263238;}.cls-15,.cls-7{fill:#ef3a5c;}.cls-7{fill-rule:evenodd;}.cls-8{stroke:#43494e;}.cls-9{fill:#e7515b;}.cls-10{opacity:0.6;}.cls-11{opacity:0.3;}.cls-12{fill:#455b64;}.cls-13{fill:#fbbd9d;}.cls-14{fill:#ec996f;}.cls-16{fill:#fafbfb;}</style></defs><path class="cls-1" d="M150.71,149.53a24.28,24.28,0,0,1,5.44-2l1.12-4.54,9.08-.13,1.31,4.5a24.57,24.57,0,0,1,5.51,1.82l4.6-2.53,6.54,5.32-2.85,4a17.19,17.19,0,0,1,2.36,4.58l5.38,1,.16,7.65L184,170.22a17.15,17.15,0,0,1-2.17,4.64l3,3.87-6.31,5.51-4.69-2.4a24.28,24.28,0,0,1-5.44,2l-1.12,4.53-9.09.14-1.3-4.5a24.34,24.34,0,0,1-5.52-1.83l-4.59,2.54-6.54-5.32,2.85-3.95a17.19,17.19,0,0,1-2.36-4.58l-5.38-1-.16-7.65,5.33-1.11a17.45,17.45,0,0,1,2.17-4.64l-3-3.87,6.32-5.51,4.69,2.4Zm4.85,10.2a7.33,7.33,0,0,0,.24,11.61,11.08,11.08,0,0,0,13.79-.2,7.34,7.34,0,0,0-.25-11.62A11.06,11.06,0,0,0,155.56,159.73Z" transform="translate(-37.18 -3.86)"/><path class="cls-1" d="M155.56,159.73a6.91,6.91,0,0,1,1.81-1.34,11.43,11.43,0,0,1,10.69,0,9.12,9.12,0,0,1,3.49,3.32,7.06,7.06,0,0,1,.89,2.31,6.71,6.71,0,0,1,.05,2.53,8,8,0,0,1-2.7,4.73,10.79,10.79,0,0,1-5.53,2.45,11.18,11.18,0,0,1-3,0,10.71,10.71,0,0,1-2.76-.66,9.82,9.82,0,0,1-4.06-2.83,7.45,7.45,0,0,1-1.69-3.6,7.15,7.15,0,0,1,1.28-5.4,6.7,6.7,0,0,1,1.53-1.57,21.12,21.12,0,0,0-1.34,1.66,7.11,7.11,0,0,0-1.08,5.26,7.32,7.32,0,0,0,1.67,3.42,9.48,9.48,0,0,0,3.89,2.66,10.64,10.64,0,0,0,2.63.62,10.83,10.83,0,0,0,2.84,0,10.3,10.3,0,0,0,5.22-2.32A7.61,7.61,0,0,0,172,166.5a6.39,6.39,0,0,0,0-2.39,6.6,6.6,0,0,0-.82-2.19,8.73,8.73,0,0,0-3.29-3.18,10.62,10.62,0,0,0-4.11-1.29,11.15,11.15,0,0,0-6.2,1.09A21.2,21.2,0,0,0,155.56,159.73Z" transform="translate(-37.18 -3.86)"/><path class="cls-1" d="M150.71,149.53l-.3-.14-.9-.44L146,147.19h.11l-6.27,5.54v-.15l3,3.86.06.07,0,.08a16.81,16.81,0,0,0-2.14,4.61l0,.09-.11,0-5.33,1.12.15-.17c.06,2.41.12,5,.18,7.66l-.18-.18,5.38.94.14,0,0,.11a17.49,17.49,0,0,0,2.34,4.53l.08.11-.08.1-2.84,4,0-.26,6.54,5.31-.32,0,4.59-2.54.13-.08.14.07a25.26,25.26,0,0,0,5.45,1.8l.16,0,0,.14,1.31,4.49-.27-.17,9.09-.14-.27.19c.35-1.44.73-3,1.12-4.54l0-.14.17,0a24.61,24.61,0,0,0,5.36-2h0l.15-.07.14.07,4.7,2.4-.35,0,6.32-5.51,0,.29-3-3.87-.09-.12.08-.12a16.79,16.79,0,0,0,2.15-4.59l0-.13.16,0,5.34-1.09-.21.22q-.08-3.93-.15-7.66l.21.21-5.38-.95-.15,0,0-.12a17.06,17.06,0,0,0-2.33-4.53l-.07-.11.07-.1,2.86-4,0,.24-6.52-5.33.27,0-4.6,2.53-.11,0-.1,0a25,25,0,0,0-5.46-1.82l-.11,0,0-.09-1.29-4.5.17.11-9.09.1.12-.08c-.46,1.8-.84,3.29-1.16,4.52v0h-.05A25.11,25.11,0,0,0,152,149l-1,.43-.33.14.31-.18c.2-.1.52-.27.95-.46a24,24,0,0,1,4.15-1.43l-.06.06c.29-1.24.65-2.72,1.08-4.54l0-.08h.1l9.09-.17h.13l0,.11,1.33,4.49-.13-.11a24.93,24.93,0,0,1,5.56,1.83h-.2l4.58-2.54.14-.08.13.1,6.55,5.31.13.1-.1.14-2.83,4v-.21a17.68,17.68,0,0,1,2.39,4.63l-.19-.15,5.38.93.2,0v.17c0,2.49.11,5.05.17,7.66v.18l-.21,0-5.33,1.11.2-.17a17.46,17.46,0,0,1-2.2,4.7v-.24l3,3.87.12.16-.16.13-6.31,5.51-.15.14-.19-.1-4.7-2.4H174a25.33,25.33,0,0,1-5.5,2l.19-.18c-.38,1.56-.76,3.1-1.12,4.53l0,.18h-.22l-9.09.13H158l-.05-.18-1.31-4.49.2.16a25.56,25.56,0,0,1-5.58-1.85h.28l-4.6,2.53-.17.1-.15-.12-6.53-5.33-.14-.11.1-.15c1-1.37,2-2.72,2.85-3.95v.21a17.54,17.54,0,0,1-2.37-4.63l.17.14-5.38-1-.17,0v-.14c-.05-2.69-.1-5.25-.14-7.66v-.14l.15,0L140.5,161l-.13.12a17.23,17.23,0,0,1,2.2-4.68v.14c-1.08-1.39-2.09-2.7-3-3.88l-.07-.08.08-.07,6.35-5.47L146,147l.06,0,3.46,1.82.89.47Z" transform="translate(-37.18 -3.86)"/><path class="cls-2" d="M417.5,203.88a15,15,0,0,1,3.26-1.19l.67-2.71,5.44-.08.78,2.69a14.71,14.71,0,0,1,3.3,1.1l2.75-1.52,3.91,3.18-1.7,2.37a10.49,10.49,0,0,1,1.41,2.74l3.22.57.1,4.58-3.2.66a10.29,10.29,0,0,1-1.29,2.78l1.8,2.32-3.78,3.29-2.81-1.43a15,15,0,0,1-3.26,1.19l-.67,2.71-5.44.08-.78-2.69a15.21,15.21,0,0,1-3.3-1.09L415.16,225l-3.91-3.19,1.7-2.37a10.33,10.33,0,0,1-1.41-2.74l-3.22-.56-.1-4.59,3.2-.66a10.17,10.17,0,0,1,1.3-2.78l-1.81-2.31,3.78-3.3,2.81,1.43Zm2.9,6.11a4.39,4.39,0,0,0,.15,6.95,6.61,6.61,0,0,0,8.25-.12,4.39,4.39,0,0,0-.14-6.95A6.64,6.64,0,0,0,420.4,210Z" transform="translate(-37.18 -3.86)"/><path class="cls-2" d="M420.4,210a4.35,4.35,0,0,1,1.09-.8,6.85,6.85,0,0,1,6.4,0,5.54,5.54,0,0,1,2.09,2,4.21,4.21,0,0,1,.53,1.38,4,4,0,0,1,0,1.51,4.79,4.79,0,0,1-1.62,2.84,6.82,6.82,0,0,1-5.1,1.49,6.3,6.3,0,0,1-1.66-.4,5.88,5.88,0,0,1-2.43-1.69,4.63,4.63,0,0,1-1-2.15,4.31,4.31,0,0,1,.77-3.24,3.93,3.93,0,0,1,.91-.94s-.35.32-.8,1a4.25,4.25,0,0,0-.64,3.15,4.32,4.32,0,0,0,1,2,5.49,5.49,0,0,0,2.33,1.59,5.72,5.72,0,0,0,1.57.37,6.43,6.43,0,0,0,4.82-1.42,4.55,4.55,0,0,0,1.54-2.67,3.87,3.87,0,0,0,0-1.44,3.93,3.93,0,0,0-.49-1.31,5.21,5.21,0,0,0-2-1.9,6.45,6.45,0,0,0-2.46-.77,6.74,6.74,0,0,0-3.71.65C420.77,209.68,420.43,210,420.4,210Z" transform="translate(-37.18 -3.86)"/><path class="cls-2" d="M417.5,203.88l-.18-.08-.54-.26-2.11-1h.06L411,205.8v-.09c.54.7,1.15,1.48,1.81,2.31l0,0,0,0a10.65,10.65,0,0,0-1.28,2.77v0h-.07l-3.19.67.09-.1c0,1.45.07,3,.11,4.59l-.1-.11,3.22.56h.08l0,.07a10.2,10.2,0,0,0,1.41,2.71l0,.06,0,.07-1.7,2.37,0-.16,3.92,3.18h-.19l2.74-1.52.08,0,.09,0a14.68,14.68,0,0,0,3.26,1.08l.1,0,0,.08c.24.84.51,1.76.78,2.69l-.16-.1,5.44-.09-.16.11.67-2.71,0-.08.1,0a14.6,14.6,0,0,0,3.21-1.17h0l.09-.05.08.05,2.82,1.43-.21,0,3.78-3.3,0,.17-1.8-2.31-.06-.07L436,219a10.2,10.2,0,0,0,1.29-2.74l0-.08.1,0,3.19-.66-.12.13c0-1.56-.06-3.09-.09-4.58l.12.12-3.22-.57h-.09l0-.07a10.43,10.43,0,0,0-1.39-2.72l-.05-.06.05-.06c.58-.82,1.15-1.6,1.7-2.37l0,.15-3.91-3.2.16,0L431,203.77l-.07,0-.06,0a15.13,15.13,0,0,0-3.27-1.09h-.06l0-.06-.77-2.69.1.06-5.44.06.07,0-.69,2.71v0h0a15.6,15.6,0,0,0-2.49.8l-.58.26-.2.08.19-.1.57-.28a15.08,15.08,0,0,1,2.48-.85l0,0c.18-.74.39-1.63.65-2.71l0-.05h.06l5.43-.1h.08l0,.06c.25.83.51,1.71.8,2.69l-.08-.07a15.45,15.45,0,0,1,3.33,1.1h-.13l2.75-1.52.08-.05.08.06,3.92,3.18.08.06-.06.08c-.55.77-1.11,1.56-1.7,2.37v-.12a10.43,10.43,0,0,1,1.44,2.77l-.12-.09,3.22.56.12,0v.1c0,1.49.06,3,.1,4.59v.1l-.12,0-3.2.66.12-.1a10.43,10.43,0,0,1-1.31,2.82V219l1.81,2.32.07.09-.09.08-3.78,3.3-.09.08-.12-.06-2.81-1.43h.17a15.18,15.18,0,0,1-3.29,1.21l.12-.11c-.23.93-.46,1.85-.67,2.71l0,.11h-.13l-5.44.08h-.13l0-.1-.79-2.7.12.1a14.88,14.88,0,0,1-3.34-1.11H418c-.95.52-1.9,1-2.75,1.52l-.11.05-.09-.07-3.91-3.19-.08-.07.06-.08,1.71-2.37v.13a10.46,10.46,0,0,1-1.42-2.78l.1.09-3.22-.57-.1,0v-.09c0-1.61-.06-3.14-.09-4.58v-.08l.1,0,3.19-.66-.08.07a10.62,10.62,0,0,1,1.32-2.8v.09c-.64-.84-1.24-1.62-1.79-2.32l0,0,0,0,3.8-3.28,0,0,0,0,2.07,1.09.53.28Z" transform="translate(-37.18 -3.86)"/><path class="cls-2" d="M460.22,35.59a19.2,19.2,0,0,1,4.18-1.53l.87-3.49,7-.11,1,3.47a18.94,18.94,0,0,1,4.25,1.41l3.54-2,5,4.1-2.19,3.05a13.31,13.31,0,0,1,1.82,3.53l4.15.73.12,5.9-4.11.85a13.36,13.36,0,0,1-1.67,3.58l2.31,3-4.86,4.25-3.62-1.85A19.09,19.09,0,0,1,473.86,62L473,65.52l-7,.11-1-3.47a18.61,18.61,0,0,1-4.25-1.41l-3.54,2-5-4.1,2.2-3A13,13,0,0,1,452.54,52l-4.15-.73-.12-5.9,4.11-.85A13.36,13.36,0,0,1,454.05,41l-2.32-3,4.87-4.25,3.62,1.85ZM464,43.45a5.66,5.66,0,0,0,.19,9,8.52,8.52,0,0,0,10.62-.16,5.65,5.65,0,0,0-.19-9A8.54,8.54,0,0,0,464,43.45Z" transform="translate(-37.18 -3.86)"/><path class="cls-2" d="M464,43.45a5.48,5.48,0,0,1,1.4-1,8.76,8.76,0,0,1,8.23,0,7.05,7.05,0,0,1,2.7,2.56,5.63,5.63,0,0,1,.72,3.73,6.19,6.19,0,0,1-2.08,3.65,8.41,8.41,0,0,1-4.26,1.88,9.16,9.16,0,0,1-4.45-.48,7.55,7.55,0,0,1-3.13-2.18,5.89,5.89,0,0,1-1.3-2.77,5.56,5.56,0,0,1,1-4.16A5.19,5.19,0,0,1,464,43.45a14.91,14.91,0,0,0-1,1.29,5.42,5.42,0,0,0-.83,4,5.65,5.65,0,0,0,1.29,2.64,7.37,7.37,0,0,0,3,2,7.91,7.91,0,0,0,2,.47,8.06,8.06,0,0,0,2.19,0,7.88,7.88,0,0,0,4-1.79,5.86,5.86,0,0,0,2-3.44,4.79,4.79,0,0,0,0-1.85,5,5,0,0,0-.63-1.68,6.59,6.59,0,0,0-2.54-2.46,8.12,8.12,0,0,0-3.17-1,8.58,8.58,0,0,0-4.77.84C464.43,43.06,464,43.49,464,43.45Z" transform="translate(-37.18 -3.86)"/><path class="cls-2" d="M460.22,35.59l-.24-.1-.69-.34-2.73-1.36h.09l-4.84,4.27v-.11l2.34,3,0,.06,0,.06a13,13,0,0,0-1.64,3.55l0,.07-.09,0-4.11.86.12-.13q.06,2.79.14,5.9l-.14-.14,4.15.72.11,0,0,.09a13.2,13.2,0,0,0,1.8,3.49l.06.08-.06.08c-.67,1-1.42,2-2.18,3l0-.2,5,4.1-.25,0,3.54-2,.1-.06.11.05A18.82,18.82,0,0,0,465,62l.12,0,0,.1,1,3.47-.21-.14,7-.11-.21.15c.27-1.11.57-2.3.86-3.5l0-.1.12,0a18.81,18.81,0,0,0,4.14-1.52h0l.11-.05.11.05,3.62,1.85-.26,0L486.38,58l0,.22-2.32-3-.07-.09L484,55a13,13,0,0,0,1.65-3.53l0-.11.13,0,4.11-.85-.16.17c0-2-.07-4-.11-5.9l.16.16-4.15-.73-.11,0,0-.1a13.43,13.43,0,0,0-1.8-3.49l-.06-.08.06-.08L486,37.4l0,.19-5-4.11.21,0-3.55,2-.08,0-.08,0A19.67,19.67,0,0,0,473.24,34h-.08l0-.07c-.36-1.26-.69-2.4-1-3.47l.12.08-7,.08.09-.07c-.36,1.4-.65,2.54-.89,3.49v0h0a19.47,19.47,0,0,0-3.2,1l-.75.34-.25.1.23-.13c.16-.08.4-.21.74-.36a18.63,18.63,0,0,1,3.19-1.1l0,0c.22-1,.5-2.1.83-3.5l0-.06h.07l7-.13h.1l0,.09c.32,1.07.65,2.2,1,3.46l-.1-.09a19.39,19.39,0,0,1,4.29,1.41h-.16l3.54-2,.11-.07.09.08,5.05,4.09.1.09-.07.1-2.19,3v-.16A13.92,13.92,0,0,1,485.92,44l-.15-.12,4.15.72.15,0v.13q.07,2.88.13,5.9v.14l-.16,0-4.11.85.15-.13a13.22,13.22,0,0,1-1.69,3.62V55l2.32,3,.1.12-.12.11-4.87,4.24-.11.11-.15-.08-3.62-1.85h.22a19,19,0,0,1-4.24,1.56l.15-.14c-.29,1.2-.59,2.39-.86,3.49l0,.14H473l-7,.11h-.17l0-.14c-.35-1.2-.69-2.38-1-3.47l.15.13a19,19,0,0,1-4.3-1.43h.21l-3.54,2-.13.07-.12-.09-5-4.1-.11-.09.08-.11c.76-1.07,1.51-2.11,2.2-3.05v.16a13.35,13.35,0,0,1-1.84-3.57l.14.11-4.14-.74-.14,0v-.11c0-2.07-.07-4.05-.11-5.9V45.3l.12,0,4.12-.84-.11.08a13.42,13.42,0,0,1,1.7-3.6V41l-2.31-3-.05-.06.06,0,4.9-4.23,0,0,0,0,2.67,1.4.68.37Z" transform="translate(-37.18 -3.86)"/><path class="cls-2" d="M345.89,61.75a14.89,14.89,0,0,1,3.25-1.19l.67-2.71,5.44-.08.78,2.69a14.69,14.69,0,0,1,3.3,1.09L362.08,60,366,63.22l-1.71,2.36a10.14,10.14,0,0,1,1.42,2.75l3.22.56.09,4.58-3.19.66a10.53,10.53,0,0,1-1.3,2.79l1.8,2.31-3.78,3.3-2.81-1.44a14.91,14.91,0,0,1-3.25,1.2L355.82,85l-5.44.08-.78-2.69a14.71,14.71,0,0,1-3.3-1.1l-2.75,1.52-3.92-3.18,1.71-2.37a10.23,10.23,0,0,1-1.42-2.74L336.7,74l-.09-4.58,3.19-.66a10.33,10.33,0,0,1,1.3-2.78l-1.8-2.32,3.78-3.3,2.81,1.44Zm2.9,6.11a4.39,4.39,0,0,0,.14,7,6.64,6.64,0,0,0,8.26-.12,4.4,4.4,0,0,0-.15-7A6.63,6.63,0,0,0,348.79,67.86Z" transform="translate(-37.18 -3.86)"/><path class="cls-2" d="M348.79,67.86a4,4,0,0,1,1.08-.81,6.69,6.69,0,0,1,3.81-.76,6.55,6.55,0,0,1,2.59.78,5.33,5.33,0,0,1,2.09,2,4.41,4.41,0,0,1,.57,2.89,4.84,4.84,0,0,1-1.62,2.84A6.5,6.5,0,0,1,354,76.25a6.89,6.89,0,0,1-3.45-.37,5.83,5.83,0,0,1-2.43-1.7,4.49,4.49,0,0,1-1-2.15,4.29,4.29,0,0,1,.76-3.23,4.06,4.06,0,0,1,.92-.94,11.88,11.88,0,0,0-.8,1,4.27,4.27,0,0,0-.65,3.15,4.45,4.45,0,0,0,1,2,5.71,5.71,0,0,0,2.33,1.59,6.21,6.21,0,0,0,1.57.37,6.46,6.46,0,0,0,1.7,0,6.19,6.19,0,0,0,3.13-1.39,4.56,4.56,0,0,0,1.53-2.68,3.62,3.62,0,0,0,0-1.43,4.07,4.07,0,0,0-.49-1.31,5.31,5.31,0,0,0-2-1.91,6.44,6.44,0,0,0-2.47-.77,6.66,6.66,0,0,0-3.71.66A12.86,12.86,0,0,0,348.79,67.86Z" transform="translate(-37.18 -3.86)"/><path class="cls-2" d="M345.89,61.75l-.18-.08-.54-.26-2.12-1.06h.07c-1,.84-2.23,2-3.76,3.31v-.09l1.81,2.31,0,0,0,0a9.84,9.84,0,0,0-1.28,2.76l0,.06h-.06l-3.19.67.09-.1c0,1.44.07,3,.11,4.58l-.11-.11,3.22.56.08,0,0,.07a10.16,10.16,0,0,0,1.4,2.71l.05.06-.05.06-1.7,2.37,0-.15,3.91,3.18-.19,0,2.75-1.52.08,0,.08,0a14.67,14.67,0,0,0,3.26,1.07l.1,0,0,.08.79,2.7-.16-.11,5.44-.08-.16.11c.21-.86.44-1.78.67-2.71l0-.09.09,0A14.64,14.64,0,0,0,359.65,81h0l.08,0,.09,0,2.81,1.44-.21,0,3.78-3.3,0,.18L364.39,77l-.05-.07.05-.07a10.39,10.39,0,0,0,1.28-2.75l0-.08.1,0,3.19-.66-.12.14q0-2.36-.09-4.59l.12.13-3.21-.57-.09,0,0-.07a10.22,10.22,0,0,0-1.39-2.71l-.05-.07.05-.06c.59-.81,1.15-1.6,1.71-2.36l0,.14L362,60.11h.16l-2.75,1.52-.06,0-.06,0A14.44,14.44,0,0,0,356,60.55l-.07,0v-.05c-.28-1-.54-1.86-.78-2.69l.1.06-5.44.06.07,0c-.27,1.08-.5,2-.69,2.71v0h0a14.74,14.74,0,0,0-2.49.81l-.59.26-.19.08.18-.1a5.06,5.06,0,0,1,.57-.28,13.27,13.27,0,0,1,2.49-.85l0,0c.18-.74.39-1.63.65-2.72v0h.06l5.44-.1h.08l0,.07c.24.83.5,1.71.79,2.68l-.08-.06a14.88,14.88,0,0,1,3.33,1.09h-.12L362,59.94l.09,0,.07.06,3.92,3.18.08.07-.05.08c-.56.77-1.12,1.56-1.7,2.37v-.13a10.71,10.71,0,0,1,1.43,2.77l-.11-.09,3.22.56.12,0v.11c0,1.49.07,3,.1,4.58v.11l-.12,0-3.19.67.12-.1A10.57,10.57,0,0,1,364.67,77v-.14l1.8,2.32.07.09-.09.08-3.78,3.3-.09.08-.11-.06-2.81-1.44h.17a15.42,15.42,0,0,1-3.3,1.2l.12-.11L356,85l0,.11h-.13l-5.44.08h-.13l0-.11c-.27-.93-.54-1.85-.78-2.69l.12.1a15.23,15.23,0,0,1-3.34-1.11h.16l-2.75,1.52-.1.06-.09-.07-3.91-3.19-.09-.07.06-.09,1.71-2.36v.12a10.41,10.41,0,0,1-1.42-2.77l.1.08-3.21-.57-.11,0V74c0-1.6-.06-3.14-.08-4.58v-.08l.09,0,3.2-.65-.08.07a10.31,10.31,0,0,1,1.31-2.8V66c-.65-.83-1.25-1.61-1.79-2.32l0,0,.05,0,3.8-3.28,0,0,0,0,2.08,1.08.53.29Z" transform="translate(-37.18 -3.86)"/><path class="cls-2" d="M96.61,142.59a14.7,14.7,0,0,1,3.25-1.19l.67-2.71,5.44-.08.78,2.69a14.71,14.71,0,0,1,3.3,1.1l2.75-1.52,3.91,3.18-1.7,2.37a10.49,10.49,0,0,1,1.41,2.74l3.22.57.1,4.58-3.19.66a10.64,10.64,0,0,1-1.3,2.78l1.8,2.32-3.78,3.3-2.81-1.44a14.89,14.89,0,0,1-3.25,1.19l-.67,2.71-5.44.08-.79-2.69a14.69,14.69,0,0,1-3.3-1.09l-2.75,1.52-3.91-3.19,1.7-2.37a10.33,10.33,0,0,1-1.41-2.74l-3.22-.56-.09-4.59,3.19-.66a10.17,10.17,0,0,1,1.3-2.78L90,144.46l3.77-3.3,2.82,1.43Zm2.9,6.11a4.4,4.4,0,0,0,.14,7,6.63,6.63,0,0,0,8.25-.13,4.39,4.39,0,0,0-.14-6.95A6.63,6.63,0,0,0,99.51,148.7Z" transform="translate(-37.18 -3.86)"/><path class="cls-2" d="M99.51,148.7a4.14,4.14,0,0,1,1.08-.8,6.85,6.85,0,0,1,6.4,0,5.54,5.54,0,0,1,2.09,2,4.21,4.21,0,0,1,.53,1.38,3.83,3.83,0,0,1,0,1.51,4.74,4.74,0,0,1-1.62,2.84,6.53,6.53,0,0,1-3.3,1.47,6.79,6.79,0,0,1-1.8,0,6.4,6.4,0,0,1-1.66-.4A5.88,5.88,0,0,1,98.83,155a4.63,4.63,0,0,1-1-2.15,4.36,4.36,0,0,1,.77-3.24,4.06,4.06,0,0,1,.92-.94,10.09,10.09,0,0,0-.81,1,4.25,4.25,0,0,0-.64,3.15,4.37,4.37,0,0,0,1,2,5.49,5.49,0,0,0,2.33,1.59,5.72,5.72,0,0,0,1.57.37,6.43,6.43,0,0,0,4.82-1.42,4.5,4.5,0,0,0,1.54-2.67,4,4,0,0,0,0-1.43,4.14,4.14,0,0,0-.5-1.32,5.14,5.14,0,0,0-2-1.9,6.4,6.4,0,0,0-2.46-.77,6.74,6.74,0,0,0-3.71.65C99.88,148.39,99.53,148.73,99.51,148.7Z" transform="translate(-37.18 -3.86)"/><path class="cls-2" d="M96.61,142.59l-.19-.08-.53-.26-2.12-1.05h.06l-3.75,3.32v-.09l1.81,2.31,0,0,0,0a10.32,10.32,0,0,0-1.27,2.77l0,0h-.06l-3.2.67.09-.1c0,1.45.07,3,.11,4.59l-.1-.11,3.22.56h.08l0,.07A10.2,10.2,0,0,0,92.18,158l0,.06,0,.07-1.7,2.37,0-.16,3.92,3.18h-.19c.85-.48,1.79-1,2.75-1.52L97,162l.08,0a14.68,14.68,0,0,0,3.26,1.08l.1,0,0,.08c.25.84.51,1.76.79,2.69l-.17-.1,5.44-.09-.16.11.67-2.71,0-.08.1,0a14.6,14.6,0,0,0,3.21-1.17h0l.09,0,.09,0,2.81,1.43-.21,0,3.78-3.3,0,.17-1.8-2.31,0-.07,0-.08a10.2,10.2,0,0,0,1.29-2.74l0-.08.1,0,3.19-.66-.12.13c0-1.56-.06-3.09-.09-4.58l.12.12-3.22-.57h-.09l0-.07a10.43,10.43,0,0,0-1.39-2.72l0-.06,0-.06L116.6,144l0,.15-3.91-3.2.16,0-2.75,1.51-.06,0-.07,0a15.13,15.13,0,0,0-3.27-1.09h-.06l0-.06-.77-2.69.1.06-5.44.06.07-.05c-.27,1.09-.5,2-.69,2.71v0h0a15.06,15.06,0,0,0-2.48.8l-.59.26-.19.08.18-.1.57-.28a15.08,15.08,0,0,1,2.48-.85l0,0c.17-.74.39-1.63.64-2.71l0-.05h.06l5.44-.1H106l0,.06c.25.83.51,1.71.8,2.69l-.08-.07a15.45,15.45,0,0,1,3.33,1.1H110l2.74-1.52.09,0,.07.06,3.92,3.18.08.06-.06.08c-.55.77-1.11,1.56-1.7,2.37v-.12a10.43,10.43,0,0,1,1.44,2.77l-.11-.09,3.22.56.12,0v.1c0,1.49.06,3,.1,4.59v.1l-.12,0-3.2.66.12-.1a10.43,10.43,0,0,1-1.31,2.82v-.15l1.81,2.32.07.09-.09.08-3.78,3.3-.09.08-.12-.05-2.81-1.44h.17a15.18,15.18,0,0,1-3.29,1.21l.12-.11c-.23.93-.46,1.85-.67,2.71l0,.11h-.13l-5.44.08H101l0-.1c-.27-.93-.54-1.85-.78-2.7l.11.1a15.31,15.31,0,0,1-3.33-1.1h.16l-2.75,1.52-.11,0-.08-.07-3.91-3.19-.09-.07.06-.08L91.93,158v.13a10.46,10.46,0,0,1-1.42-2.78l.1.09-3.22-.57-.1,0v-.09c0-1.61-.06-3.14-.08-4.58v-.08l.1,0,3.19-.66-.08.07a10.62,10.62,0,0,1,1.32-2.8v.09l-1.8-2.32,0-.05,0,0,3.81-3.28,0,0,0,0,2.07,1.09.54.28Z" transform="translate(-37.18 -3.86)"/><path class="cls-3" d="M122,213.92a46.83,46.83,0,0,1,10.31-3.78l2.12-8.59,17.24-.26,2.48,8.53a47.15,47.15,0,0,1,10.45,3.47l8.72-4.81,12.4,10.09-5.4,7.5a33.09,33.09,0,0,1,4.48,8.69l10.2,1.79.3,14.52-10.12,2.09a32.6,32.6,0,0,1-4.11,8.81l5.71,7.34-12,10.45-8.9-4.55A46.83,46.83,0,0,1,155.63,279l-2.12,8.59-17.24.26-2.48-8.53a46.89,46.89,0,0,1-10.46-3.47l-8.71,4.82-12.4-10.09,5.4-7.51a32.88,32.88,0,0,1-4.48-8.68l-10.2-1.79-.31-14.53L102.75,236a32.64,32.64,0,0,1,4.12-8.81l-5.71-7.34,12-10.45,8.91,4.55Zm9.19,19.35c-7.1,6.19-6.89,16,.46,22s19.05,5.81,26.15-.39,6.89-16-.46-22S138.32,227.08,131.23,233.27Z" transform="translate(-37.18 -3.86)"/><path class="cls-4" d="M131.23,233.27a13.21,13.21,0,0,1,3.44-2.55,21.67,21.67,0,0,1,20.27.05,17.35,17.35,0,0,1,6.63,6.3,13.58,13.58,0,0,1,1.68,4.37,12.68,12.68,0,0,1,.1,4.8,15.16,15.16,0,0,1-5.13,9,20.32,20.32,0,0,1-10.48,4.64,21.3,21.3,0,0,1-5.69.09,20.69,20.69,0,0,1-5.25-1.27,18.56,18.56,0,0,1-7.7-5.36,14.43,14.43,0,0,1-3.2-6.82,13.55,13.55,0,0,1,2.43-10.24,12.47,12.47,0,0,1,2.9-3,37.89,37.89,0,0,0-2.54,3.16,13.47,13.47,0,0,0-2,10,14,14,0,0,0,3.18,6.49,17.84,17.84,0,0,0,7.38,5,19.08,19.08,0,0,0,5,1.17,19.91,19.91,0,0,0,5.39-.1,19.42,19.42,0,0,0,9.89-4.4,14.36,14.36,0,0,0,4.86-8.48,11.94,11.94,0,0,0-.07-4.54,12.71,12.71,0,0,0-1.56-4.15,16.51,16.51,0,0,0-6.24-6,20.45,20.45,0,0,0-7.8-2.45A21.23,21.23,0,0,0,134.89,231C132.4,232.29,131.32,233.35,131.23,233.27Z" transform="translate(-37.18 -3.86)"/><path class="cls-4" d="M122,213.92a4.31,4.31,0,0,1-.58-.26l-1.7-.83L113,209.49l.21,0L101.35,220l0-.29,5.75,7.33.1.13-.09.14a32.35,32.35,0,0,0-4,8.75l0,.17-.2,0-10.12,2.11.29-.31c.11,4.57.22,9.42.34,14.52l-.33-.34L103.23,254l.26.05.07.21a32.81,32.81,0,0,0,4.45,8.59l.14.2-.14.2-5.39,7.51-.07-.49L115,280.36l-.61-.05,8.7-4.82.26-.14.27.12a46.73,46.73,0,0,0,10.33,3.42l.3.06.08.26c.77,2.67,1.63,5.58,2.48,8.52l-.51-.33,17.24-.26-.51.35,2.12-8.59.07-.27.3-.07a46.34,46.34,0,0,0,10.17-3.72h0l.28-.14.27.14,8.91,4.55-.66.07,12-10.44-.06.55c-1.92-2.48-3.83-4.92-5.71-7.35l-.17-.22.15-.23a32.13,32.13,0,0,0,4.07-8.7l.08-.26.3-.06,10.12-2.08-.38.42q-.15-7.44-.29-14.53l.39.4-10.2-1.8-.28-.05-.08-.23a32.7,32.7,0,0,0-4.41-8.6l-.15-.2.15-.2,5.41-7.5.07.46-12.38-10.11.51,0-8.73,4.8-.19.1-.2-.09a46.21,46.21,0,0,0-10.36-3.46l-.2-.05-.05-.17-2.45-8.53.31.2-17.24.19.23-.16c-.87,3.43-1.59,6.24-2.19,8.58l0,.09-.1,0a48.36,48.36,0,0,0-7.88,2.56l-1.85.81a4.48,4.48,0,0,1-.62.27,5.36,5.36,0,0,1,.57-.33c.4-.21,1-.51,1.82-.88a44.74,44.74,0,0,1,7.87-2.7l-.12.1c.56-2.34,1.23-5.16,2.06-8.6l0-.16h.2L151.7,201H152l.06.21c.78,2.63,1.6,5.42,2.51,8.52l-.25-.21A47.41,47.41,0,0,1,164.83,213h-.39l8.69-4.83.27-.15.24.19,12.42,10.07.26.2-.18.26-5.39,7.51v-.4a33.12,33.12,0,0,1,4.54,8.78l-.36-.29,10.21,1.78.38.07v.33q.15,7.08.32,14.52v.34l-.39.08-10.12,2.1.38-.32a33.17,33.17,0,0,1-4.16,8.93l0-.46,5.72,7.34.23.3-.3.25-12,10.45-.29.26-.36-.19-8.91-4.54h.54a47.19,47.19,0,0,1-10.43,3.82l.38-.34L154,287.67l-.08.35h-.43l-17.23.25h-.42l-.1-.34c-.85-2.94-1.69-5.85-2.47-8.53l.38.32a47.44,47.44,0,0,1-10.58-3.52h.52l-8.72,4.8-.33.19-.28-.24-12.39-10.1-.27-.22.19-.27,5.42-7.5v.4a33.18,33.18,0,0,1-4.51-8.78l.33.26-10.2-1.81-.33-.06v-.28c-.09-5.09-.18-10-.26-14.52v-.26l.29-.06,10.13-2.06-.25.21A32.8,32.8,0,0,1,106.6,227v.27l-5.68-7.36-.11-.15.14-.13L113,209.27l.1-.08.11.06,6.56,3.44,1.69.9Z" transform="translate(-37.18 -3.86)"/><path class="cls-1" d="M419.24,67.36a34.11,34.11,0,0,1,7.47,1l4.87-4.25,9.91,5.07-2.22,5.6a24.56,24.56,0,0,1,4.48,5.14l7-.11,2.76,9.49-6.27,2.64a20.11,20.11,0,0,1-1.15,6.3l5.05,4.1-6,8.36-6.64-1.88a28.41,28.41,0,0,1-6.1,3.77l.12,5.91-11.26,2.32-3.13-5.28a33,33,0,0,1-7.47-1l-4.87,4.25-9.91-5.07,2.22-5.6A24.76,24.76,0,0,1,393.6,103l-7,.1-2.76-9.49L390.11,91a20.1,20.1,0,0,1,1.15-6.29l-5.05-4.11,6-8.35,6.64,1.87a29.22,29.22,0,0,1,6.1-3.77l-.12-5.9,11.26-2.33,3.13,5.28Zm-3,13.79c-6.68,1.38-10.76,7-9.12,12.68s8.37,9.06,15,7.68,10.75-7.05,9.12-12.67S422.9,79.77,416.23,81.15Z" transform="translate(-37.18 -3.86)"/><path class="cls-1" d="M416.23,81.15a11.06,11.06,0,0,1,3-.41A14,14,0,0,1,427.16,83a11.19,11.19,0,0,1,3.62,3.88,9.28,9.28,0,0,1,1.09,5.59,8.81,8.81,0,0,1-.91,3,9.64,9.64,0,0,1-2,2.76,13.19,13.19,0,0,1-6.75,3.56,15,15,0,0,1-7.93-.52A12.84,12.84,0,0,1,411,99.6a11,11,0,0,1-2.45-2.3,9.66,9.66,0,0,1-2.09-5.38,9.19,9.19,0,0,1,1.08-4.85A11.53,11.53,0,0,1,413.3,82a11,11,0,0,1,2.93-.83c0,.07-1.07.25-2.8,1A11.5,11.5,0,0,0,408,87.24a8.9,8.9,0,0,0-.95,4.65,9.25,9.25,0,0,0,2.05,5.1,10.39,10.39,0,0,0,2.34,2.17,11.73,11.73,0,0,0,3.1,1.57,14.25,14.25,0,0,0,7.5.49,12.78,12.78,0,0,0,6.39-3.35,9.53,9.53,0,0,0,1.89-2.61,8.59,8.59,0,0,0,.88-2.83,8.87,8.87,0,0,0-1-5.32,10.58,10.58,0,0,0-3.4-3.76A13.94,13.94,0,0,0,419.27,81C417.31,81,416.24,81.22,416.23,81.15Z" transform="translate(-37.18 -3.86)"/><path class="cls-1" d="M419.24,67.36a1.7,1.7,0,0,1-.22-.31c-.15-.25-.35-.57-.62-1q-.82-1.38-2.39-3.93l.12,0-11.24,2.38.14-.15c0,1.78.09,3.77.15,5.9v.1l-.11.06a28.4,28.4,0,0,0-6,3.75l-.1.09-.14,0-6.65-1.86.29-.09q-2.82,4-6,8.37l0-.3,5,4.1.13.1,0,.15A20.39,20.39,0,0,0,390.41,91v.15l-.17.08L384,93.84l.17-.3,2.77,9.48-.33-.21,7-.11h.2l.1.15a24.5,24.5,0,0,0,4.42,5.07l.15.13-.07.16c-.69,1.76-1.45,3.67-2.21,5.61l-.15-.35,9.92,5.07-.44,0,4.86-4.25.15-.13.21,0a32.87,32.87,0,0,0,7.37,1h.23l.09.16c1.05,1.77,2.1,3.53,3.13,5.28l-.4-.16,11.26-2.32-.27.29q-.06-3-.12-5.9v-.18l.18-.08a28.17,28.17,0,0,0,6-3.73l.15-.12.2.06,6.64,1.87-.4.13,6-8.35.05.34-5-4.11-.14-.11.06-.16a20.36,20.36,0,0,0,1.15-6.22v-.16l.17-.07,6.27-2.63-.16.28c-1-3.34-1.87-6.49-2.73-9.49l.27.17-7,.09h-.15l-.08-.12a24.63,24.63,0,0,0-4.41-5.1l-.1-.09,0-.11c.82-2,1.55-3.86,2.24-5.6l.09.21-9.88-5.1.19,0-4.9,4.22-.05,0h-.06a33.79,33.79,0,0,0-5.58-.93l-1.4-.1a2.73,2.73,0,0,1-.46,0h.47c.31,0,.78,0,1.4.05a32.28,32.28,0,0,1,5.63.84l-.11,0L431.46,64l.09-.08.11.06,9.94,5,.15.07-.06.14c-.68,1.73-1.4,3.57-2.19,5.61l-.06-.2A24.67,24.67,0,0,1,444,79.78l-.23-.11,7-.12H451l0,.18,2.78,9.49.06.19-.22.09-6.26,2.64.17-.22a20.68,20.68,0,0,1-1.15,6.36l-.08-.27,5,4.1.19.15-.13.19-6,8.36-.14.2-.25-.07-6.65-1.87.34-.07a28.52,28.52,0,0,1-6.16,3.82l.18-.26c0,2,.09,3.91.13,5.9v.24l-.27.06-11.26,2.32-.28.06-.13-.21c-1-1.75-2.08-3.51-3.13-5.28l.32.16h0a33.83,33.83,0,0,1-7.56-1l.36-.08L406,119l-.2.17-.24-.12L395.68,114l-.24-.13.09-.22c.76-1.93,1.52-3.85,2.22-5.6l.08.29a24.82,24.82,0,0,1-4.52-5.2l.3.15-7,.1h-.26l-.06-.21c-1-3.3-1.89-6.51-2.75-9.5l-.06-.2.23-.1L390,90.73l-.17.23A20.88,20.88,0,0,1,391,84.6l.08.25-5-4.11-.16-.14.11-.16,6-8.34.1-.15.2.06L399,73.89l-.24,0a29.2,29.2,0,0,1,6.16-3.78l-.11.15c0-2.12-.07-4.11-.1-5.9v-.12l.14,0L416.08,62l.09,0,0,.07L418.48,66c.24.44.43.77.57,1Z" transform="translate(-37.18 -3.86)"/><path class="cls-4" d="M451.76,253.49a10.79,10.79,0,0,1,3.07-.41,14,14,0,0,1,8,2.3,11.19,11.19,0,0,1,3.65,3.91,9.28,9.28,0,0,1,1.1,5.64,9,9,0,0,1-.91,3,10.34,10.34,0,0,1-2,2.79,13.41,13.41,0,0,1-6.81,3.59,15.25,15.25,0,0,1-8-.53,12.83,12.83,0,0,1-3.3-1.69,10.81,10.81,0,0,1-2.47-2.33,9.68,9.68,0,0,1-2.12-5.43,9.27,9.27,0,0,1,1.1-4.89,11.56,11.56,0,0,1,5.79-5.14,10.61,10.61,0,0,1,2.95-.83c0,.07-1.08.24-2.82,1a11.54,11.54,0,0,0-5.46,5.1,9,9,0,0,0-1,4.69,9.33,9.33,0,0,0,2.07,5.15,10.57,10.57,0,0,0,2.36,2.19,11.88,11.88,0,0,0,3.14,1.59,14.36,14.36,0,0,0,7.56.49,12.7,12.7,0,0,0,6.44-3.38,9.44,9.44,0,0,0,1.91-2.63,8.54,8.54,0,0,0,.89-2.86,9,9,0,0,0-1-5.37,10.84,10.84,0,0,0-3.43-3.79,14,14,0,0,0-7.65-2.4C452.86,253.28,451.78,253.56,451.76,253.49Z" transform="translate(-37.18 -3.86)"/><path class="cls-4" d="M454.8,239.57a2.46,2.46,0,0,1-.22-.32c-.15-.25-.36-.57-.62-1l-2.42-4,.13.06-11.35,2.4.14-.15c0,1.8.1,3.81.15,5.95v.11l-.11,0a29.23,29.23,0,0,0-6.09,3.79l-.1.09-.13,0-6.72-1.87.3-.1c-1.9,2.66-3.92,5.49-6.05,8.45l0-.3,5.1,4.13.13.11,0,.15a20.17,20.17,0,0,0-1.14,6.28v.16l-.17.07-6.32,2.67.17-.3c.87,3,1.82,6.25,2.79,9.57l-.33-.21,7.07-.11h.21l.1.16a24.66,24.66,0,0,0,4.46,5.11l.15.13-.07.17-2.23,5.66-.15-.35,10,5.11-.45,0,4.92-4.29.15-.14.21.06a33.35,33.35,0,0,0,7.44,1h.22l.1.16q1.59,2.69,3.16,5.33l-.41-.16,11.37-2.34-.27.29c0-2-.09-4-.13-5.95V285l.19-.09a29,29,0,0,0,6.08-3.75l.15-.13.2.06L481,283l-.41.12q3.12-4.31,6.08-8.42l.06.34-5.09-4.14-.14-.12.06-.15a20.57,20.57,0,0,0,1.16-6.29v-.16l.17-.07,6.33-2.65-.16.29-2.76-9.59.27.18-7.07.09h-.15l-.08-.11a24.58,24.58,0,0,0-4.46-5.15l-.1-.09.05-.11c.82-2.06,1.56-3.91,2.26-5.65l.09.21-10-5.15.2,0-4.94,4.26-.05,0-.07,0a34.45,34.45,0,0,0-5.62-.93l-1.42-.1a3.21,3.21,0,0,1-.47,0h.47c.32,0,.79,0,1.43.05a31.41,31.41,0,0,1,5.68.85l-.12,0,4.88-4.31.09-.08.11.06,10,5.07.15.08,0,.13c-.69,1.75-1.42,3.61-2.22,5.66l-.06-.2a25.23,25.23,0,0,1,4.58,5.22l-.24-.12,7.07-.12h.22l.06.18c.88,3,1.82,6.21,2.8,9.58l.06.19-.21.09-6.32,2.67.17-.23a20.78,20.78,0,0,1-1.16,6.43l-.09-.27,5.1,4.13.19.16-.14.19-6.06,8.43-.14.2-.26-.07-6.71-1.88.35-.07a29.3,29.3,0,0,1-6.22,3.85l.18-.26c0,2,.09,3.95.13,5.95v.24l-.27.06-11.37,2.35-.28.06-.13-.22-3.16-5.33.32.17h0a34.54,34.54,0,0,1-7.63-1l.36-.08-4.91,4.28-.2.18-.24-.13-10-5.11-.24-.13.09-.22c.77-1.95,1.54-3.88,2.24-5.66l.08.3a24.74,24.74,0,0,1-4.56-5.25l.31.15-7.08.1h-.26l-.07-.22-2.77-9.58-.06-.21.23-.1,6.33-2.65-.17.23a20.74,20.74,0,0,1,1.19-6.43l.07.26c-1.77-1.45-3.5-2.87-5.08-4.15l-.16-.14.12-.16,6.09-8.42.11-.15.19.06,6.7,1.9-.23.05a29.06,29.06,0,0,1,6.21-3.82l-.11.16c0-2.15-.07-4.15-.1-6v-.12l.14,0,11.39-2.29.09,0,0,.07,2.28,4c.25.44.44.78.59,1A3.06,3.06,0,0,1,454.8,239.57Z" transform="translate(-37.18 -3.86)"/><polygon class="cls-2" points="42.99 414.54 42.99 444.83 95.56 444.83 153.53 444.83 153.53 414.54 42.99 414.54"/><polygon class="cls-1" points="38.35 406.07 38.35 414.54 157.4 414.54 157.4 406.07 95.56 406.07 38.35 406.07"/><polygon class="cls-1" points="97.88 444.83 153.53 444.83 153.53 414.54 157.4 414.54 157.4 406.07 95.56 406.07 95.56 413.76 97.88 444.83"/><rect class="cls-1" x="58.45" y="419.43" width="22.42" height="4.56"/><rect class="cls-5" x="55.56" y="429.69" width="28.79" height="9.63"/><polygon class="cls-2" points="59.99 375.82 59.99 406.11 112.56 406.11 170.54 406.11 170.54 375.82 59.99 375.82"/><polygon class="cls-1" points="55.36 367.35 55.36 375.82 174.41 375.82 174.41 367.35 112.56 367.35 55.36 367.35"/><polygon class="cls-1" points="114.88 406.11 170.54 406.11 170.54 375.82 174.41 375.82 174.41 367.35 112.56 367.35 112.56 375.04 114.88 406.11"/><rect class="cls-1" x="75.46" y="380.71" width="22.42" height="4.56"/><rect class="cls-5" x="72.57" y="390.97" width="28.79" height="9.63"/><path class="cls-6" d="M574.82,448.69c0,.15-120.36.26-268.81.26s-268.83-.11-268.83-.26,120.34-.25,268.83-.25S574.82,448.55,574.82,448.69Z" transform="translate(-37.18 -3.86)"/><path class="cls-7" d="M115.08,36.35a62.52,62.52,0,0,1,13.7-5L131.65,20l22.89-.27L157.78,31a62.5,62.5,0,0,1,13.87,4.64l11.59-6.35,16.41,13.44-7.21,9.94a43.84,43.84,0,0,1,5.9,11.55l13.54,2.42L212.2,86,198.75,88.7a43.19,43.19,0,0,1-5.51,11.68l7.54,9.77L184.83,124,173,117.9a61.91,61.91,0,0,1-13.71,5l-2.87,11.41-22.88.27-3.25-11.33a62.27,62.27,0,0,1-13.86-4.65l-11.6,6.36L88.45,111.48l7.21-9.94A43.84,43.84,0,0,1,89.76,90L76.23,87.58l-.32-19.29,13.45-2.73a43,43,0,0,1,5.51-11.69l-7.55-9.76,16-13.83,11.8,6.07Z" transform="translate(-37.18 -3.86)"/><path class="cls-5" d="M157.56,71.45a23.21,23.21,0,0,0-.74-4,14.46,14.46,0,0,0-2.21-4.4,18,18,0,0,0-5-4.68,21.44,21.44,0,0,0-8.24-3.06,23.23,23.23,0,0,0-10.27.73,19.61,19.61,0,0,0-4.93,2.25,20.3,20.3,0,0,0-2.22,1.58A21.52,21.52,0,0,0,122,61.73a14.36,14.36,0,0,0,0,19.44,16.46,16.46,0,0,0,4.12,3.49,19.84,19.84,0,0,0,4.94,2.25,23.23,23.23,0,0,0,10.27.73,21.39,21.39,0,0,0,8.24-3.07,17.8,17.8,0,0,0,5-4.67,14.57,14.57,0,0,0,2.21-4.4,23.21,23.21,0,0,0,.74-4,1.1,1.1,0,0,1,0,.27c0,.21,0,.47,0,.8a6.67,6.67,0,0,1-.13,1.29,9.68,9.68,0,0,1-.38,1.74,14.26,14.26,0,0,1-2.15,4.5,18.07,18.07,0,0,1-5,4.81,21.78,21.78,0,0,1-8.42,3.2,23.75,23.75,0,0,1-10.55-.71,20.43,20.43,0,0,1-5.09-2.29,23.48,23.48,0,0,1-2.28-1.63,20.45,20.45,0,0,1-2-2,14.75,14.75,0,0,1,0-20,17.52,17.52,0,0,1,4.26-3.59,20.43,20.43,0,0,1,5.09-2.29,23.75,23.75,0,0,1,10.55-.71,21.67,21.67,0,0,1,8.41,3.2,17.85,17.85,0,0,1,5,4.81,14.16,14.16,0,0,1,2.15,4.5,9.68,9.68,0,0,1,.38,1.74,6.67,6.67,0,0,1,.13,1.29c0,.33,0,.59,0,.8A1.1,1.1,0,0,1,157.56,71.45Z" transform="translate(-37.18 -3.86)"/><path class="cls-5" d="M151.32,83.61c.11-.1,4.43,3.38,9.64,7.77s9.33,8,9.21,8.12-4.43-3.37-9.64-7.76S151.2,83.71,151.32,83.61Z" transform="translate(-37.18 -3.86)"/><path class="cls-7" d="M271.53,109.33a79.67,79.67,0,0,1,17.6-6.39l3.67-14.63L322.18,88l4.17,14.54a80.49,80.49,0,0,1,17.8,6L359,100.31l21.06,17.25-9.25,12.76a56.24,56.24,0,0,1,7.57,14.83l17.37,3.1.41,24.75-17.26,3.51a55.43,55.43,0,0,1-7.07,15l9.68,12.54L361.06,221.8,345.91,214a79.37,79.37,0,0,1-17.59,6.38L324.64,235l-29.37.35-4.17-14.55a80.49,80.49,0,0,1-17.8-6L258.42,223l-21.06-17.26L246.61,193A56,56,0,0,1,239,178.18l-17.37-3.1-.42-24.76,17.27-3.51a55.28,55.28,0,0,1,7.07-15l-9.68-12.53,20.48-17.75,15.14,7.8Z" transform="translate(-37.18 -3.86)"/><path class="cls-5" d="M298.79,187.45h.35l1,0,3.86,0,14.41-.09-.18.16c-.06-2.09-.12-4.44-.19-7v-.12l.14,0a45.63,45.63,0,0,0,12.33-7.1,27.79,27.79,0,0,0,5.17-5.59,17.15,17.15,0,0,0,2.84-7.1A20.7,20.7,0,0,0,334.1,145,33.07,33.07,0,0,0,318,134.2a32.54,32.54,0,0,0-15.44-.91,33.21,33.21,0,0,0-13.4,5.22,23.7,23.7,0,0,0-8.1,9.42c-.35.9-.81,1.75-1.08,2.65s-.51,1.78-.77,2.66a24.41,24.41,0,0,0-.55,5.25,20.61,20.61,0,0,0,.74,4.94,21,21,0,0,0,1.89,4.39,26,26,0,0,0,5.81,6.79,41.07,41.07,0,0,0,12,6.92l.07,0v.06c-.13,1.89-.23,3.34-.3,4.33,0,.48-.07.85-.09,1.12s0,.38,0,.38a1.46,1.46,0,0,1,0-.35c0-.27,0-.63,0-1.1.05-1,.11-2.47.19-4.39l.07.09a40.45,40.45,0,0,1-12.21-6.87,26.13,26.13,0,0,1-5.94-6.84,19.41,19.41,0,0,1-2.73-9.5,24.52,24.52,0,0,1,.53-5.33c.25-.89.51-1.79.77-2.7s.73-1.79,1.09-2.7a24,24,0,0,1,8.23-9.62,33.67,33.67,0,0,1,13.66-5.34,33.66,33.66,0,0,1,32.12,11.93,21.6,21.6,0,0,1,3.93,7.8,12.89,12.89,0,0,1,.44,2,11.82,11.82,0,0,1,.24,2c0,.68.07,1.35.07,2l-.21,2a17.59,17.59,0,0,1-2.94,7.26,28.24,28.24,0,0,1-5.28,5.67,46.16,46.16,0,0,1-12.52,7.13l.12-.17c.05,2.52.1,4.86.14,6.95v.16h-.18l-14.52-.09-3.82,0h-1A1.64,1.64,0,0,1,298.79,187.45Z" transform="translate(-37.18 -3.86)"/><path class="cls-5" d="M318.7,192.05a99.4,99.4,0,0,1-10.09.26c-5.57,0-10.08-.11-10.08-.25a99.12,99.12,0,0,1,10.08-.26C314.18,191.8,318.7,191.91,318.7,192.05Z" transform="translate(-37.18 -3.86)"/><path class="cls-5" d="M312.17,198.47a14.27,14.27,0,0,1-7.11-.18,19.27,19.27,0,0,1,3.56,0A20.64,20.64,0,0,1,312.17,198.47Z" transform="translate(-37.18 -3.86)"/><path class="cls-5" d="M302.9,187.45a.84.84,0,0,1,0-.28v-.82c0-.76,0-1.82.05-3.16.08-2.78.19-6.74.33-11.62.07-2.45.16-5.14.25-8a4.63,4.63,0,0,0-.34-2.08,1.63,1.63,0,0,0-1.77-1,2.15,2.15,0,0,0-1.57,1.49,2.66,2.66,0,0,0,.33,2.16,6,6,0,0,0,4.5,2.52,6.55,6.55,0,0,0,5.24-1.77,6.88,6.88,0,0,0,2.21-4.75,3.89,3.89,0,0,0-.62-2.51,2.36,2.36,0,0,0-2.46-.89,1.8,1.8,0,0,0-1.18,2,4.75,4.75,0,0,0,1.4,2.31,11.05,11.05,0,0,0,4.85,3.16,7.45,7.45,0,0,0,2.92.29,6.45,6.45,0,0,0,2.66-.93,4,4,0,0,0,1.67-1.87,2.41,2.41,0,0,0-.16-2.2,2.29,2.29,0,0,0-2-1.15,2.88,2.88,0,0,0-2.08,1.06c-1,1.2-1,2.79-1.23,4.19-.37,2.86-.61,5.54-.83,8-.39,4.87-.71,8.82-.93,11.59-.11,1.34-.19,2.4-.25,3.16,0,.33-.06.6-.08.82a.84.84,0,0,1-.05.27,1.16,1.16,0,0,1,0-.28c0-.21,0-.48,0-.82,0-.76.08-1.81.13-3.16.14-2.74.37-6.7.74-11.6.19-2.45.41-5.13.76-8,.11-.72.19-1.45.34-2.19a4.84,4.84,0,0,1,.95-2.21,3.44,3.44,0,0,1,2.51-1.26,2.88,2.88,0,0,1,2.5,1.39,2.84,2.84,0,0,1,.2,2.58A4.57,4.57,0,0,1,320,164a7.13,7.13,0,0,1-2.92,1,8.09,8.09,0,0,1-3.21-.31,11.67,11.67,0,0,1-5.13-3.32,5.19,5.19,0,0,1-1.52-2.55,2.29,2.29,0,0,1,1.56-2.59,3,3,0,0,1,3.2,1.1,4.3,4.3,0,0,1,.7,2.8,7.36,7.36,0,0,1-2.36,5.07,7.26,7.26,0,0,1-5.76,1.92,6.52,6.52,0,0,1-4.93-2.8,3,3,0,0,1-.35-2.5,2.62,2.62,0,0,1,2-1.8,2.23,2.23,0,0,1,1.49.28,2.16,2.16,0,0,1,.87,1,5,5,0,0,1,.35,2.26c-.11,2.88-.22,5.56-.32,8-.22,4.87-.4,8.83-.52,11.61-.07,1.34-.13,2.4-.17,3.16,0,.33-.05.6-.06.82A1.14,1.14,0,0,1,302.9,187.45Z" transform="translate(-37.18 -3.86)"/><path class="cls-5" d="M316.92,195.26a63.13,63.13,0,0,1-8.18.26,63.13,63.13,0,0,1-8.18-.26,66.64,66.64,0,0,1,8.18-.25A66.64,66.64,0,0,1,316.92,195.26Z" transform="translate(-37.18 -3.86)"/><path class="cls-7" d="M464.43,148.84a51.73,51.73,0,0,1,11.34-4.29L478,135l19-.48,2.88,9.4a52.29,52.29,0,0,1,11.62,3.71l9.55-5.42,13.88,11-5.85,8.36a36.89,36.89,0,0,1,5.09,9.55L545.5,173l.57,16.06-11.16,2.42a35.67,35.67,0,0,1-4.4,9.79l6.43,8L523.86,221,514,216.11a51.73,51.73,0,0,1-11.34,4.29l-2.21,9.53-19,.48-2.88-9.4a52.32,52.32,0,0,1-11.62-3.72l-9.55,5.42-13.88-11,5.85-8.36a36.75,36.75,0,0,1-5.09-9.55l-11.3-1.87-.57-16,11.16-2.43a35.8,35.8,0,0,1,4.4-9.79l-6.43-8.05,13.07-11.69,9.92,4.93Z" transform="translate(-37.18 -3.86)"/><path class="cls-5" d="M514.73,199.76s-.32,0-.92.05l-2.65.05-9.75.08-32.16.07h-2.6v-.25c0-10.13.07-19.2.1-25.81,0-3.24.07-5.88.09-7.76,0-.87,0-1.57.06-2.1a3.47,3.47,0,0,1,.06-.73,3.47,3.47,0,0,1,.06.73c0,.53,0,1.23.05,2.1,0,1.88.06,4.52.1,7.76,0,6.61.05,15.68.09,25.81l-.3-.26h2.29l32.16.08,9.75.08,2.65,0A5.55,5.55,0,0,1,514.73,199.76Z" transform="translate(-37.18 -3.86)"/><path class="cls-5" d="M509.42,172.19a11.45,11.45,0,0,1-1.42,1.15l-4,3c-3.42,2.5-8.17,5.93-13.45,9.7l-.8.57-.21.14-.19-.15-6-4.69h.38L474.91,188l-2.55,1.72a5.94,5.94,0,0,1-.95.57,5.32,5.32,0,0,1,.83-.69l2.45-1.82,8.64-6.25.19-.14.19.15,6,4.65h-.4l.8-.57c5.27-3.77,10.07-7.15,13.57-9.58l4.15-2.86A13.29,13.29,0,0,1,509.42,172.19Z" transform="translate(-37.18 -3.86)"/><path class="cls-5" d="M509.42,180.62a11.13,11.13,0,0,1-.21-2.51c0-1.55-.09-3.71-.09-6.12l.3.26h-.51c-3,0-5.67,0-7.61-.08a18.52,18.52,0,0,1-3.15-.18,19.92,19.92,0,0,1,3.15-.18c1.94,0,4.63-.07,7.61-.07h.82V172c0,2.41,0,4.57-.1,6.12A10.44,10.44,0,0,1,509.42,180.62Z" transform="translate(-37.18 -3.86)"/><path class="cls-6" d="M201.13,201.16a8.19,8.19,0,0,1-1.35-2.73c-.59-1.55-.94-2.85-.77-2.88a8.23,8.23,0,0,1,1.35,2.73A7.55,7.55,0,0,1,201.13,201.16Z" transform="translate(-37.18 -3.86)"/><path class="cls-6" d="M213.5,222.18a26.06,26.06,0,0,1-3.92-4.88c-1.94-2.82-3.18-5.25-3-5.31s1.63,2.25,3.55,5.06S213.65,222.09,213.5,222.18Z" transform="translate(-37.18 -3.86)"/><path class="cls-6" d="M231.69,239.93a29,29,0,0,1-5.26-3.88c-2.72-2.32-4.64-4.42-4.51-4.51a62.72,62.72,0,0,1,4.94,4.15A56.86,56.86,0,0,1,231.69,239.93Z" transform="translate(-37.18 -3.86)"/><path class="cls-6" d="M254.74,253.07a32.29,32.29,0,0,1-6.3-2.56,29.34,29.34,0,0,1-5.75-3.35c.1-.12,2.73,1.28,6.06,2.91S254.82,252.94,254.74,253.07Z" transform="translate(-37.18 -3.86)"/><path class="cls-6" d="M281.2,260.26a45.33,45.33,0,0,1-6.9-.92,46,46,0,0,1-6.65-1.84,46.58,46.58,0,0,1,6.79,1.34A49.25,49.25,0,0,1,281.2,260.26Z" transform="translate(-37.18 -3.86)"/><path class="cls-6" d="M309,260.78a36,36,0,0,1-6.94.69,34.71,34.71,0,0,1-7-.18c0-.14,3.12-.18,7-.33S309,260.63,309,260.78Z" transform="translate(-37.18 -3.86)"/><path class="cls-6" d="M336.21,255.71a34.63,34.63,0,0,1-6.58,2,35.31,35.31,0,0,1-6.85,1.18,67.43,67.43,0,0,1,6.69-1.67A68.51,68.51,0,0,1,336.21,255.71Z" transform="translate(-37.18 -3.86)"/><path class="cls-6" d="M361.44,245.76a31.57,31.57,0,0,1-5.9,3.16,33.36,33.36,0,0,1-6.38,2.41,62.77,62.77,0,0,1,6.09-2.86A66.12,66.12,0,0,1,361.44,245.76Z" transform="translate(-37.18 -3.86)"/><path class="cls-6" d="M383.07,231a26.12,26.12,0,0,1-4.74,4.34,29.27,29.27,0,0,1-5.49,3.65,63.18,63.18,0,0,1,5.08-4C380.74,232.77,382.94,230.9,383.07,231Z" transform="translate(-37.18 -3.86)"/><path class="cls-6" d="M398.46,211.51a35.2,35.2,0,0,1-6.73,10.28c-.15-.08,1.49-2.31,3.33-5.15A54.45,54.45,0,0,1,398.46,211.51Z" transform="translate(-37.18 -3.86)"/><path class="cls-6" d="M408,189.43c.16,0-.68,2.58-1.89,5.67a31.62,31.62,0,0,1-2.46,5.5c-.16,0,.68-2.58,1.89-5.66A31.09,31.09,0,0,1,408,189.43Z" transform="translate(-37.18 -3.86)"/><path class="cls-6" d="M416.93,167.16c.19.06-.89,2.53-2.14,5.59a31.58,31.58,0,0,1-2.58,5.47c-.16,0,.74-2.57,2-5.64.61-1.54,1.28-2.9,1.78-3.88A5.92,5.92,0,0,1,416.93,167.16Z" transform="translate(-37.18 -3.86)"/><path class="cls-6" d="M429.3,146.12c.15.08-1.44,2.34-3.3,5.18a46.49,46.49,0,0,1-3.48,5.09c-.15-.06,1.08-2.49,3-5.34A25.73,25.73,0,0,1,429.3,146.12Z" transform="translate(-37.18 -3.86)"/><path class="cls-6" d="M447.91,128.76c.1.12-2.35,1.75-5.15,4s-5,4.11-5.09,4a23.92,23.92,0,0,1,4.67-4.38A25.48,25.48,0,0,1,447.91,128.76Z" transform="translate(-37.18 -3.86)"/><path class="cls-6" d="M473,118.85c0,.14-2.94.91-6.55,2s-6.49,2.11-6.57,2a29.31,29.31,0,0,1,6.36-2.46A32.57,32.57,0,0,1,473,118.85Z" transform="translate(-37.18 -3.86)"/><path class="cls-6" d="M500.66,116.25c0,.15-3.12.08-7,.2s-6.95.33-7,.18a33.39,33.39,0,0,1,6.95-.69A32,32,0,0,1,500.66,116.25Z" transform="translate(-37.18 -3.86)"/><path class="cls-6" d="M527.55,122c-.07.14-3-.83-6.59-1.91s-6.59-1.87-6.55-2a32.71,32.71,0,0,1,6.76,1.52A32.14,32.14,0,0,1,527.55,122Z" transform="translate(-37.18 -3.86)"/><path class="cls-6" d="M551.29,134.27c-.12.11-2.57-1.51-5.7-3.38s-5.74-3.32-5.65-3.45a30.74,30.74,0,0,1,6,3A27.65,27.65,0,0,1,551.29,134.27Z" transform="translate(-37.18 -3.86)"/><path class="cls-6" d="M565.29,147.3c-.15.08-1.1-1-2.25-2.26a10,10,0,0,1-1.9-2.47,8.41,8.41,0,0,1,2.39,2.17A7.42,7.42,0,0,1,565.29,147.3Z" transform="translate(-37.18 -3.86)"/><path class="cls-8" d="M257.05,247" transform="translate(-37.18 -3.86)"/><path class="cls-6" d="M52.51,63.11s.07-.31.22-.89.4-1.47.7-2.6a59.09,59.09,0,0,1,3.88-9.71,71.51,71.51,0,0,1,9.64-14A88.67,88.67,0,0,1,84.74,20.55,100.6,100.6,0,0,1,111.84,8.2a115.81,115.81,0,0,1,16.74-3.41,126.75,126.75,0,0,1,18.24-.89,111.2,111.2,0,0,1,19,2,96.81,96.81,0,0,1,18.87,5.62A87,87,0,0,1,202,21.23a74.75,74.75,0,0,1,14.33,13.33,63,63,0,0,1,9.6,16.06,65.28,65.28,0,0,1,4.37,17.08c.13,1.43.31,2.85.39,4.27s.08,2.84.12,4.25-.09,2.81-.13,4.21-.26,2.77-.48,4.14a54.4,54.4,0,0,1-5,15.61,114.8,114.8,0,0,1-8.28,13.72l-8.7,12.51A66.29,66.29,0,0,0,198,150.76,90.59,90.59,0,0,0,196.38,162c-.32,3.57-.46,6.94-.48,10.1,0,6.31.09,11.77.91,16.16a54.83,54.83,0,0,0,2.66,10c.43,1.11.79,2,1.06,2.5.12.29.24.49.31.63l.1.21a21,21,0,0,1-1.59-3.31,54.37,54.37,0,0,1-2.78-10c-.85-4.41-1-9.88-1-16.19,0-3.16.13-6.55.44-10.13a89.08,89.08,0,0,1,1.61-11.27,66.38,66.38,0,0,1,10.15-24.5l8.68-12.52A115.51,115.51,0,0,0,224.66,100a54.05,54.05,0,0,0,5-15.49c.21-1.36.32-2.74.47-4.11s.14-2.78.12-4.18L230.08,72c-.08-1.41-.26-2.83-.39-4.25a65.08,65.08,0,0,0-4.35-17,62.67,62.67,0,0,0-9.53-15.94,74.6,74.6,0,0,0-14.22-13.24A87.59,87.59,0,0,0,184.46,12a96.27,96.27,0,0,0-18.73-5.58,110.08,110.08,0,0,0-18.93-2,126.93,126.93,0,0,0-18.14.86A114.72,114.72,0,0,0,112,8.6,100.52,100.52,0,0,0,85,20.84,89.15,89.15,0,0,0,67.22,36.06,72.44,72.44,0,0,0,57.52,50a62.1,62.1,0,0,0-4,9.65c-.33,1.13-.58,2-.76,2.59S52.51,63.11,52.51,63.11Z" transform="translate(-37.18 -3.86)"/><path class="cls-9" d="M336.18,424.24l17.49,5.17-.19,14.17c-8.37,2-9.54,5.56-9.54,5.56l17.5-.34,15.23-26.09-12.05-6.64-22.52-8.3" transform="translate(-37.18 -3.86)"/><g class="cls-10"><polygon class="cls-5" points="339.49 418.84 324.26 444.94 306.76 445.27 308.68 443.02 322.89 442.09 336.93 417.43 339.49 418.84"/></g><path class="cls-6" d="M353.42,437.09c.14.15,1.13-.36,2.49-.35s2.36.46,2.49.31-.85-1-2.5-1S353.26,437,353.42,437.09Z" transform="translate(-37.18 -3.86)"/><path class="cls-6" d="M353.61,433.57c.18.1.94-.78,2.33-1a11.55,11.55,0,0,1,2.62.11c.06-.07-.15-.31-.64-.53a3.79,3.79,0,0,0-2.15-.21,3.35,3.35,0,0,0-1.84,1C353.59,433.24,353.53,433.53,353.61,433.57Z" transform="translate(-37.18 -3.86)"/><path class="cls-6" d="M353.38,429.06c.19.08.77-.78,2-1.16a13.83,13.83,0,0,1,2.39-.23c.05-.08-.18-.28-.67-.42a3.5,3.5,0,0,0-2,0,2.94,2.94,0,0,0-1.53,1.08C353.3,428.75,353.29,429,353.38,429.06Z" transform="translate(-37.18 -3.86)"/><path class="cls-6" d="M352.09,429.05c.22,0,.08-1,.61-2s1.38-1.57,1.27-1.73-1.36.24-2,1.48S351.9,429.13,352.09,429.05Z" transform="translate(-37.18 -3.86)"/><path class="cls-6" d="M350,427.39a5.16,5.16,0,0,0,.41-2l.24-2.16a4.17,4.17,0,0,0,0-1.37,1.25,1.25,0,0,0-1.82-.7,2.77,2.77,0,0,0-1,1.31,4.15,4.15,0,0,0-.32,1.34,4.33,4.33,0,0,0,.46,2.23,3.06,3.06,0,0,0,1.54,1.58c.1-.08-.59-.62-1-1.75a4.11,4.11,0,0,1,.06-3.18,2.41,2.41,0,0,1,.71-1,.36.36,0,0,1,.37,0,.58.58,0,0,1,.29.34,4.16,4.16,0,0,1,0,1.18c0,.73,0,1.45-.07,2.16A5.16,5.16,0,0,0,350,427.39Z" transform="translate(-37.18 -3.86)"/><path class="cls-6" d="M349.74,428c.06,0-.45-.68-1.8-1a4.84,4.84,0,0,0-5,1.49.59.59,0,0,0,.07.57.9.9,0,0,0,.46.32,3.06,3.06,0,0,0,.82.14,9.75,9.75,0,0,0,1.43,0,8.63,8.63,0,0,0,2.31-.5c1.25-.46,1.83-1,1.78-1.05s-.75.3-2,.62a9.92,9.92,0,0,1-2.18.33,9.37,9.37,0,0,1-1.29,0,2.55,2.55,0,0,1-.59-.1c-.15-.08-.11,0-.11-.1a1.23,1.23,0,0,1,.35-.35,4.59,4.59,0,0,1,.51-.35,4.86,4.86,0,0,1,1.12-.45,5,5,0,0,1,2.12-.1C349,427.64,349.66,428.12,349.74,428Z" transform="translate(-37.18 -3.86)"/><g class="cls-10"><path class="cls-5" d="M362.7,422.52a1.94,1.94,0,0,0,2.12,1.71,1.92,1.92,0,0,0,2-1.78,2,2,0,0,0-2.12-1.71A1.91,1.91,0,0,0,362.7,422.52Z" transform="translate(-37.18 -3.86)"/></g><path class="cls-9" d="M246.44,418.31l.23,19.31s-23.21,6.69-23.58,10.26l44.45.95,1.1-30.09Z" transform="translate(-37.18 -3.86)"/><g class="cls-10"><path class="cls-5" d="M260.47,436.29a1.52,1.52,0,0,1,1.2,1.77,1.79,1.79,0,0,1-2.07,1c-.86-.2-1.58-1.18-1.27-1.88a2,2,0,0,1,2.3-.86" transform="translate(-37.18 -3.86)"/></g><g class="cls-10"><path class="cls-5" d="M267.54,448.84l0-3-42.6.22s-2,.68-1.82,1.86Z" transform="translate(-37.18 -3.86)"/></g><path class="cls-6" d="M246,437.41c0,.19,1.08.29,2.13.9s1.6,1.39,1.8,1.33-.09-1.14-1.37-1.86S245.92,437.24,246,437.41Z" transform="translate(-37.18 -3.86)"/><path class="cls-6" d="M241.25,438.94c-.06.17.87.5,1.59,1.29s.9,1.62,1.12,1.61.38-1-.53-2S241.26,438.76,241.25,438.94Z" transform="translate(-37.18 -3.86)"/><path class="cls-6" d="M238.46,443.58c.19,0,.52-.86,0-1.88s-1.53-1.43-1.63-1.28.52.7.93,1.54S238.24,443.56,238.46,443.58Z" transform="translate(-37.18 -3.86)"/><path class="cls-6" d="M246.49,433c.08.17,1.08-.07,2.31,0a17.34,17.34,0,0,0,2.29.29c.13-.13-.78-.83-2.23-.92S246.38,432.86,246.49,433Z" transform="translate(-37.18 -3.86)"/><g class="cls-11"><polygon points="209.31 418.27 209.35 421.71 231.2 422.01 231.32 418.92 209.31 418.27"/></g><path class="cls-6" d="M246.52,429.11a4.82,4.82,0,0,0,2.23,0,12.6,12.6,0,0,0,2.35-.55,10.85,10.85,0,0,0,1.29-.55,2.61,2.61,0,0,0,.69-.42.73.73,0,0,0,.13-1,1.26,1.26,0,0,0-.94-.43,3,3,0,0,0-.84.08,8.18,8.18,0,0,0-1.4.37,7.73,7.73,0,0,0-2.08,1.09c-1.06.78-1.43,1.45-1.36,1.49s.62-.5,1.69-1.14a9.26,9.26,0,0,1,2-.9,9.39,9.39,0,0,1,1.29-.3c.47-.1.87-.09,1,.09s.05.09-.06.21a2.58,2.58,0,0,1-.5.31c-.4.21-.8.38-1.19.54a14.33,14.33,0,0,1-2.18.65A17.66,17.66,0,0,0,246.52,429.11Z" transform="translate(-37.18 -3.86)"/><path class="cls-6" d="M246.8,429.38a2.8,2.8,0,0,0,.64-1.8,5.36,5.36,0,0,0-.24-2.06,5.9,5.9,0,0,0-.53-1.15,1.79,1.79,0,0,0-1.4-1,1.07,1.07,0,0,0-.94.5,2.15,2.15,0,0,0-.25.69,3.36,3.36,0,0,0,0,1.26,4,4,0,0,0,.89,2,2.84,2.84,0,0,0,1.76,1.16c.07-.09-.67-.46-1.31-1.4a4,4,0,0,1-.65-1.78,3.31,3.31,0,0,1,.08-1.08c.08-.4.26-.72.44-.67a1.2,1.2,0,0,1,.76.63,5.64,5.64,0,0,1,.89,2.91C246.93,428.67,246.68,429.35,246.8,429.38Z" transform="translate(-37.18 -3.86)"/><polygon class="cls-6" points="312.58 404.61 261.4 388.57 315.21 382.2 317.92 360.12 217.3 367.52 203.09 384.75 206.83 406.38 304.86 427.38 312.58 404.61"/><path class="cls-6" d="M241.24,423.93,236.34,345c.27-7.68,5.24-14.71,13.13-18.56h0A30.75,30.75,0,0,1,271,324.58l65.28,18.34,35.83,7.76s6.1,12.69,2.51,22.55c-3.51,9.64-16.06,16.06-27.1,13.3-13.71-3.42-76.67-26.24-76.67-26.24v64.28Z" transform="translate(-37.18 -3.86)"/><path class="cls-12" d="M346.58,386.74a1.77,1.77,0,0,1-.39-.1l-1.11-.37-4.29-1.44-15.7-5.4-51.71-18-2.63-.92.42-.24c0,17.86-.07,33.92-.1,45.55,0,5.77-.07,10.45-.09,13.71,0,1.59,0,2.84-.06,3.72,0,.41,0,.73,0,1a1.39,1.39,0,0,1,0,.33,1.39,1.39,0,0,1,0-.33c0-.24,0-.56,0-1,0-.88,0-2.13-.05-3.72,0-3.26-.06-7.94-.1-13.71,0-11.63,0-27.69-.09-45.55v-.38l.42.15,2.63.92,51.65,18.12,15.63,5.55,4.23,1.53,1.1.41Z" transform="translate(-37.18 -3.86)"/><path class="cls-12" d="M286.29,386.83a19.67,19.67,0,0,1,6.71,2c3.49,1.61,5.68,3.65,5.56,3.73s-2.45-1.71-5.86-3.29S286.24,387,286.29,386.83Z" transform="translate(-37.18 -3.86)"/><path class="cls-12" d="M265.18,349.62a24.35,24.35,0,0,1,3.46,5.34,23.14,23.14,0,0,1,2.43,5.72,59.51,59.51,0,0,1-3-5.52A56.67,56.67,0,0,1,265.18,349.62Z" transform="translate(-37.18 -3.86)"/><polygon class="cls-13" points="228.15 310.97 216.61 309.15 204.48 319.58 206.72 326.22 220.86 321.83 228.15 310.97"/><path class="cls-14" d="M222.65,199.12l-3.13.22s-5.62.78-5.62.88-2.48,3-2.48,3l-2.27,2.95a3.78,3.78,0,0,0,3.17-.49l-.79,1.48a3.88,3.88,0,0,0,4.34-1.42,36.75,36.75,0,0,1,2.45-2.94l1-.08c.08.18,4,4.87,4.12,4.77s3.36-2.78,3.36-2.78Z" transform="translate(-37.18 -3.86)"/><path class="cls-13" d="M231,219.57,232,205l-8.76-8.37-9.64.49-4,2.32c.21.8,2.94,1.35,5.89.63a17.77,17.77,0,0,1,6.07-.17l3.71,5.45-2.45,2.28,3.14,14Z" transform="translate(-37.18 -3.86)"/><path class="cls-6" d="M205.45,200.37h31.32a1.33,1.33,0,0,1,1.43,1.2h0a1.33,1.33,0,0,1-1.43,1.21H205.45l-3.08-1.21Z" transform="translate(-37.18 -3.86)"/><path class="cls-13" d="M221.3,223.48l-3.19-6.61a5.32,5.32,0,0,1-.53-2.65c.13-2.37.34-7.14-.09-8.24-.58-1.48-2.92-6.52-1.61-7.26s3.14-1,4.42,2,5.22,9.35,5.22,9.35l3,10.54Z" transform="translate(-37.18 -3.86)"/><path class="cls-14" d="M225.12,209.39a20.1,20.1,0,0,1-1.81-2.82c-1.05-1.75-2.47-4.3-4-6.93a2.39,2.39,0,0,0-1.85-1,1.7,1.7,0,0,0-1.56,1,3.18,3.18,0,0,0,.06,1.73q.19.85.42,1.56c.61,1.9,1.25,3,1.16,3s-.23-.24-.53-.74a13.89,13.89,0,0,1-1-2.19,16.41,16.41,0,0,1-.5-1.58,3.43,3.43,0,0,1-.11-1.95,2.23,2.23,0,0,1,2.08-1.35,3,3,0,0,1,2.38,1.24c1.62,2.8,2.9,5.23,3.87,7A17.38,17.38,0,0,1,225.12,209.39Z" transform="translate(-37.18 -3.86)"/><polygon class="cls-15" points="333.94 346.64 330.75 341.92 296.59 334.71 300.61 340.56 333.94 346.64"/><path class="cls-15" d="M218.33,223.48l21.5,42.94a18.63,18.63,0,0,0,10.72,8.94l46.39,16.05,10.8-25.18-45.18-13.48-29.35-35.26Z" transform="translate(-37.18 -3.86)"/><path class="cls-15" d="M288.19,266.65c.05,1-5,32.25-5,38.63s14.5,13.31,14.5,13.31L313.56,347h56.57l-19.34-30.59-8.74-24.51a56.91,56.91,0,0,0-17.56-24.53l-9.44-5.32Z" transform="translate(-37.18 -3.86)"/><path class="cls-15" d="M304.62,291.32l9.5,33.59L266.2,313.53,258,325.69l62.34,23.93c7.68,2.95,16.76.87,21.61-4.95h0a12.91,12.91,0,0,0,2.63-12.15l-14-46c-1.92-6.32-9.81-9.94-17.16-7.86h0C307.24,280.47,303.46,285.84,304.62,291.32Z" transform="translate(-37.18 -3.86)"/><path class="cls-6" d="M297.68,318.59a2.58,2.58,0,0,1-.55-.2c-.35-.14-.86-.37-1.51-.68a47.25,47.25,0,0,1-5.26-2.93,19.53,19.53,0,0,1-6.18-5.93c-1.54-2.79-1.43-6.23-.87-9.6s1.41-6.56,1.9-9.49.9-5.56,1.09-7.78.24-4,.23-5.28a16,16,0,0,1,0-1.94,1.49,1.49,0,0,1,.1.5c.05.32.1.81.14,1.43a41.45,41.45,0,0,1,0,5.31,75.85,75.85,0,0,1-1,7.83c-.46,2.94-1.27,6.13-1.85,9.49s-.65,6.68.78,9.33a19.36,19.36,0,0,0,5.94,5.84,53.51,53.51,0,0,0,5.11,3.05C297,318.21,297.7,318.56,297.68,318.59Z" transform="translate(-37.18 -3.86)"/><path class="cls-6" d="M324.1,282.4a31.87,31.87,0,0,0-6.46-1.3,32.44,32.44,0,0,0-6.6.56,13.09,13.09,0,0,1,6.64-1.07A12.89,12.89,0,0,1,324.1,282.4Z" transform="translate(-37.18 -3.86)"/><path class="cls-6" d="M317.62,264.29a5.15,5.15,0,0,1-.86.81c-.59.51-1.45,1.21-2.54,2.07-2.18,1.71-5.27,4-8.81,6.4s-6.88,4.43-9.34,5.85c-1.23.71-2.23,1.27-2.94,1.64a5.82,5.82,0,0,1-1.13.53,5.12,5.12,0,0,1,1-.7l2.82-1.76c2.39-1.49,5.67-3.57,9.21-6s6.66-4.63,8.9-6.27L316.6,265A4.83,4.83,0,0,1,317.62,264.29Z" transform="translate(-37.18 -3.86)"/><path class="cls-6" d="M262.55,252.84c.06.14-1.68.76-3.6,1.83s-3.31,2.15-3.44,2.05,1.1-1.38,3.1-2.48A9.77,9.77,0,0,1,262.55,252.84Z" transform="translate(-37.18 -3.86)"/><path class="cls-16" d="M309.2,306.54a4.67,4.67,0,0,1-1,.28,23,23,0,0,1-2.94.44,34.42,34.42,0,0,1-4.43.1,36.09,36.09,0,0,1-5.37-.69,33.72,33.72,0,0,1-5.12-1.53,27.92,27.92,0,0,1-3.85-1.85,19.44,19.44,0,0,1-2.35-1.55c-.52-.4-.79-.63-.76-.66s1.24.79,3.34,1.91a35,35,0,0,0,8.89,3.19,37.22,37.22,0,0,0,9.61.72C307.67,306.75,309.18,306.45,309.2,306.54Z" transform="translate(-37.18 -3.86)"/><path class="cls-16" d="M312.45,321.31a7,7,0,0,1-2.15.33,23,23,0,0,1-5.26-.3,21.92,21.92,0,0,1-5-1.46,6.2,6.2,0,0,1-1.82-1,50.64,50.64,0,0,0,6.92,2A54,54,0,0,0,312.45,321.31Z" transform="translate(-37.18 -3.86)"/><path class="cls-16" d="M337.22,312.13a3.63,3.63,0,0,1-.89.45c-.58.27-1.46.6-2.57,1a46.27,46.27,0,0,1-18.3,2.13c-1.19-.1-2.14-.23-2.79-.35a3.28,3.28,0,0,1-1-.23c0-.08,1.46.1,3.82.22a54.76,54.76,0,0,0,18.12-2.11C335.84,312.56,337.18,312.06,337.22,312.13Z" transform="translate(-37.18 -3.86)"/><path class="cls-16" d="M332.81,295.68c0,.08-1.48-.15-3.86-.39a72.94,72.94,0,0,0-9.33-.33,71,71,0,0,0-9.28.9c-2.35.38-3.79.7-3.82.62a4,4,0,0,1,1-.33c.64-.18,1.58-.41,2.76-.65a57.38,57.38,0,0,1,9.35-1.05,56.69,56.69,0,0,1,9.41.49c1.19.16,2.15.33,2.8.47A4.19,4.19,0,0,1,332.81,295.68Z" transform="translate(-37.18 -3.86)"/><path class="cls-16" d="M342.68,341.64a6.58,6.58,0,0,1-1.37-.23,35.27,35.27,0,0,1-3.61-.94,51.24,51.24,0,0,1-11.05-4.86,45.61,45.61,0,0,1-9.18-7.11,31.57,31.57,0,0,1-2.28-2.54,4.83,4.83,0,0,1-.71-1c.09-.06,1.21,1.31,3.31,3.31A52.32,52.32,0,0,0,327,335.2a58.42,58.42,0,0,0,10.85,4.94C340.8,341.12,342.7,341.55,342.68,341.64Z" transform="translate(-37.18 -3.86)"/><path class="cls-16" d="M299.71,341.13a9.1,9.1,0,0,1-.14-2.79,26.07,26.07,0,0,1,1.18-6.68,28.33,28.33,0,0,1,2.86-6.31,10.89,10.89,0,0,1,1.75-2.38,23.29,23.29,0,0,1-1.36,2.54,35.14,35.14,0,0,0-2.67,6.28,34.13,34.13,0,0,0-1.33,6.57A20.72,20.72,0,0,1,299.71,341.13Z" transform="translate(-37.18 -3.86)"/><path class="cls-16" d="M270.86,330.08a6.9,6.9,0,0,1,0-2.35,11.74,11.74,0,0,1,2.07-5.41,18.71,18.71,0,0,1,4.5-4.24,11.52,11.52,0,0,1,2.26-1.37,13.61,13.61,0,0,1-2,1.64,22.49,22.49,0,0,0-4.26,4.23,13.45,13.45,0,0,0-2.17,5.2A13.73,13.73,0,0,1,270.86,330.08Z" transform="translate(-37.18 -3.86)"/><path class="cls-16" d="M366.37,340.88a19.25,19.25,0,0,1-3.37,1.26,72.15,72.15,0,0,1-8.51,2.15,43.14,43.14,0,0,1-8.85.81c-.57,0-1.08-.05-1.54-.09a10,10,0,0,1-1.15-.13,4.19,4.19,0,0,1-1-.21c0-.09,1.41.1,3.66.07a52.21,52.21,0,0,0,8.71-.95c3.36-.63,6.35-1.41,8.5-2A31.75,31.75,0,0,1,366.37,340.88Z" transform="translate(-37.18 -3.86)"/><path class="cls-16" d="M353.57,321.47c.07,0-.3.62-1.28,1.22a18.45,18.45,0,0,1-4.12,1.83,29.56,29.56,0,0,1-4.44,1.1,7.43,7.43,0,0,1-1.41.12c-.34,0-.55-.1-.52-.11s.7-.08,1.83-.36,2.66-.69,4.32-1.23a28.15,28.15,0,0,0,4.1-1.64C353,321.9,353.49,321.43,353.57,321.47Z" transform="translate(-37.18 -3.86)"/><path class="cls-16" d="M345.56,301.75s0,.17-.18.35a3.51,3.51,0,0,1-.93.64,20.76,20.76,0,0,1-3.52,1.39,23.85,23.85,0,0,1-3.75.85,3,3,0,0,1-1.62,0c0-.07.59-.09,1.53-.31s2.23-.56,3.63-1,2.65-.86,3.52-1.22a7.7,7.7,0,0,0,1-.47C345.44,301.84,345.5,301.74,345.56,301.75Z" transform="translate(-37.18 -3.86)"/><path class="cls-16" d="M304,291.33a11.85,11.85,0,0,1-2.74.09,41.08,41.08,0,0,1-6.55-.77,39.48,39.48,0,0,1-6.27-1.79,10.24,10.24,0,0,1-2.4-1.12c.08-.15,3.82,1.43,8.81,2.41S304,291.17,304,291.33Z" transform="translate(-37.18 -3.86)"/><path class="cls-16" d="M337.56,282.45c.12.14-1.56,1.09-3.83,1.85s-4.24,1.1-4.27.93,1.82-.62,4.05-1.4S337.49,282.36,337.56,282.45Z" transform="translate(-37.18 -3.86)"/><path class="cls-16" d="M311.43,269.69a4.94,4.94,0,0,1,1.63,1.08,12.71,12.71,0,0,1,2.81,3.49,10.81,10.81,0,0,1,1.27,4.07,3.57,3.57,0,0,1-.09,1.74c-.19,0-.12-2.68-1.73-5.6S311.29,269.8,311.43,269.69Z" transform="translate(-37.18 -3.86)"/><path class="cls-16" d="M274.71,283.65a3.47,3.47,0,0,1-.53-.93,13.39,13.39,0,0,1-.93-2.69,20.64,20.64,0,0,1,.08-9.23A42.91,42.91,0,0,1,276.5,262c.52-1.1,1-2,1.28-2.58a3.29,3.29,0,0,1,.55-.91,3.42,3.42,0,0,1-.33,1c-.31.73-.67,1.61-1.1,2.64a52.82,52.82,0,0,0-3,8.79,22.4,22.4,0,0,0-.26,9.07C274.12,282.27,274.82,283.62,274.71,283.65Z" transform="translate(-37.18 -3.86)"/><path class="cls-16" d="M247.3,274.2a3.5,3.5,0,0,1,.21-1,20.79,20.79,0,0,1,.92-2.62,32.19,32.19,0,0,1,4.88-8,36.83,36.83,0,0,1,7.25-6.65,27.3,27.3,0,0,1,2.61-1.63,4.38,4.38,0,0,1,1-.51c.06.08-1.33.9-3.36,2.42a42.07,42.07,0,0,0-7,6.66,37.19,37.19,0,0,0-5,7.86C247.84,272.85,247.4,274.23,247.3,274.2Z" transform="translate(-37.18 -3.86)"/><path class="cls-16" d="M251.71,239.71c0,.09-1.33.14-3.38.63a35,35,0,0,0-7.57,2.85,36.45,36.45,0,0,0-6.58,4.28c-1.51,1.26-2.28,2.18-2.36,2.13s.12-.26.45-.69a7.7,7.7,0,0,1,.66-.75,11.87,11.87,0,0,1,.94-.94,29.84,29.84,0,0,1,6.58-4.47,30.33,30.33,0,0,1,7.78-2.76,12.7,12.7,0,0,1,1.44-.22,8,8,0,0,1,1.1-.09A2.86,2.86,0,0,1,251.71,239.71Z" transform="translate(-37.18 -3.86)"/><path class="cls-16" d="M240.84,226.32a42.13,42.13,0,0,0-10,.65,38.63,38.63,0,0,0-9.18,3.44,9.64,9.64,0,0,1,2.36-1.55,26.09,26.09,0,0,1,6.67-2.39,28.14,28.14,0,0,1,7.21-.57A11,11,0,0,1,240.84,226.32Z" transform="translate(-37.18 -3.86)"/><path class="cls-6" d="M304.62,291.32a3.1,3.1,0,0,1,.23.64c.15.47.34,1.09.58,1.88.5,1.68,1.2,4.05,2.07,7,1.74,6,4.14,14.4,6.91,24l.11.41-.48-.11-12.22-2.89-35.68-8.55.25-.09c-2.53,3.71-4.6,6.73-6.06,8.86l-1.67,2.4-.45.61a1.24,1.24,0,0,1-.17.2.85.85,0,0,1,.11-.22l.4-.65,1.57-2.44c1.42-2.15,3.43-5.19,5.89-8.94l.09-.12.16,0,35.73,8.4,12.21,2.91-.37.3-6.69-24.05c-.8-3-1.45-5.36-1.9-7-.21-.8-.37-1.43-.49-1.9A3.29,3.29,0,0,1,304.62,291.32Z" transform="translate(-37.18 -3.86)"/><path class="cls-6" d="M330.87,289.23a2.64,2.64,0,0,1,.24.58c.14.43.33,1,.55,1.67l1.93,6.19,6.15,20.47c1.17,4,2.32,7.81,3.29,11.3a22.53,22.53,0,0,1,.91,9.48,12.21,12.21,0,0,1-2.67,6,7.76,7.76,0,0,1-1.92,1.72,20.88,20.88,0,0,0,1.72-1.83,12.38,12.38,0,0,0,2.45-5.93,22.84,22.84,0,0,0-1-9.33c-1-3.47-2.15-7.28-3.33-11.27-2.33-8-4.43-15.2-6-20.51-.73-2.58-1.32-4.69-1.75-6.23-.18-.69-.33-1.26-.44-1.7A2.29,2.29,0,0,1,330.87,289.23Z" transform="translate(-37.18 -3.86)"/><g class="cls-11"><path d="M339.57,347c7,.55,11.08-2.82,11.84-7.44.41-2.54-.59-5.07-1.57-7.5-4.3-10.63-8.65-21.34-15.47-31,2.57,9.64,5.86,18.91,8.44,28.56a25.5,25.5,0,0,1,1.09,8.21,13.61,13.61,0,0,1-4.33,9.15" transform="translate(-37.18 -3.86)"/></g><path class="cls-6" d="M313.75,260a16.82,16.82,0,0,0,11.47-1.19,12.44,12.44,0,0,0,6.66-7.94,9.58,9.58,0,0,0,7.24,1.62,14.73,14.73,0,0,0,6.74-3.07c3.5-2.73,5.85-6.65,5.67-10.67a10.62,10.62,0,0,0-7.66-9.34c-4.49-1.36-10.17.41-12,4.11-.83-2.1,1.31-4.94.8-7.12-1-4.37-4.13-6.92-6.76-7" transform="translate(-37.18 -3.86)"/><path class="cls-6" d="M319.39,258.87c5.14-7.54,6.61-17.58,7.91-26.27.61-4.09,1.68-9.92-1.63-12.47-3.54-2.74-3.88-7-7.95-9.08s-9.6-2.29-13.44.13" transform="translate(-37.18 -3.86)"/><path class="cls-13" d="M292.71,273.88V262.05s-14.62-2.18-15.49-12.06-.56-32.68-.56-32.68h0a44.7,44.7,0,0,1,40,2.14l-.59,34.76,0,11.33-12,8.19-11.43,7.58Z" transform="translate(-37.18 -3.86)"/><path class="cls-6" d="M288.51,237.9a6.38,6.38,0,0,1,7.75-1.49,5.31,5.31,0,0,1,2.23,7.17,8.64,8.64,0,0,1-5.56,3.68s5.26,8.1,8.61,10.24c4,2.56,5.87,3.82,10.79,4.31s4.26.53,7.06-2.94a12,12,0,0,0,2.74-8l.45-21.85a27.43,27.43,0,0,0-.6-7.83,10.51,10.51,0,0,0-4.78-6.48c-2.77-1.57-6.27-1.7-9.42-2.57-3.94-1.1-7.29-3.36-11-5s-8.2-2.59-11.89-1c-2.65,1.16-4.42,3.47-7,4.75-3.66,1.83-8.66,1.43-10.43,6.13a7,7,0,0,0,.08,5c2.51,6.39,11.62,8.94,18.17,6.16.13,1.08-1.09,3.49.23,6.91.43,1.09.58,2.76,2.55,2.78" transform="translate(-37.18 -3.86)"/><path class="cls-14" d="M290.56,244.07c-.05,0-.05.18.16.42A1.8,1.8,0,0,0,292,245a2.93,2.93,0,0,0,2.93-2.74,2.61,2.61,0,0,0-.84-2.08,3.53,3.53,0,0,0-1.78-.89c-1.17-.21-1.84.17-1.8.23a14.92,14.92,0,0,1,1.64.25,2.54,2.54,0,0,1,2,2.46,2.44,2.44,0,0,1-2.13,2.27A2.49,2.49,0,0,1,290.56,244.07Z" transform="translate(-37.18 -3.86)"/><path class="cls-12" d="M350,238.88a2.8,2.8,0,0,1-.33.93,10.31,10.31,0,0,1-1.56,2.3,14.13,14.13,0,0,1-8.7,4.49,15.3,15.3,0,0,1-9.88-2.15,11,11,0,0,1-2.26-1.84c-.46-.49-.66-.79-.63-.81a23.76,23.76,0,0,0,3.14,2.36,15.52,15.52,0,0,0,9.54,1.94,14.43,14.43,0,0,0,8.45-4.22A20.84,20.84,0,0,0,350,238.88Z" transform="translate(-37.18 -3.86)"/><path class="cls-12" d="M348.37,237.28a2.36,2.36,0,0,1-.41.76,11.17,11.17,0,0,1-1.58,1.84,15.2,15.2,0,0,1-7.57,3.8A16.83,16.83,0,0,1,330,243a13.09,13.09,0,0,1-2.35-1.12,3,3,0,0,1-.75-.54c.07-.08,1.18.65,3.26,1.32a17.56,17.56,0,0,0,8.48.54,16.07,16.07,0,0,0,7.4-3.56C347.62,238.28,348.28,237.23,348.37,237.28Z" transform="translate(-37.18 -3.86)"/><path class="cls-12" d="M328.76,250a1.66,1.66,0,0,1-.49.23,6.41,6.41,0,0,1-1.54.34,9.53,9.53,0,0,1-5.58-1.29,14.35,14.35,0,0,1-5.26-5.76c-1.42-2.46-2.55-5.34-4.76-7.83a10.94,10.94,0,0,0-4-2.88,16.49,16.49,0,0,0-4.79-1.06c-3.18-.27-6.12-.09-8.58-.38a15.41,15.41,0,0,1-5.55-1.46,7.27,7.27,0,0,1-1.27-.81,2.13,2.13,0,0,1-.38-.34s.58.42,1.77,1a16.23,16.23,0,0,0,5.48,1.27c2.42.24,5.33,0,8.59.27a16.87,16.87,0,0,1,5,1.08,11.44,11.44,0,0,1,4.22,3c2.3,2.59,3.41,5.5,4.79,7.94a14.16,14.16,0,0,0,5,5.66,9.5,9.5,0,0,0,5.32,1.39A10.53,10.53,0,0,0,328.76,250Z" transform="translate(-37.18 -3.86)"/><path class="cls-12" d="M327.62,246.41a2,2,0,0,1-.53,0,6.26,6.26,0,0,1-1.49-.16A9.7,9.7,0,0,1,321,243.7a15.38,15.38,0,0,1-2.19-2.65c-.67-1-1.28-2.13-2-3.28a21.82,21.82,0,0,0-2.38-3.46,11.65,11.65,0,0,0-1.66-1.54,8.64,8.64,0,0,0-1-.64,6.58,6.58,0,0,0-1.09-.56,15.57,15.57,0,0,0-4.82-1.19,43.09,43.09,0,0,0-4.75-.21A74.67,74.67,0,0,1,293,230a16.53,16.53,0,0,1-5.28-1.33,9.36,9.36,0,0,1-1.24-.71,2,2,0,0,1-.4-.28s.63.31,1.75.81a17.81,17.81,0,0,0,5.22,1.15c2.29.21,5,.11,8.1.07a44.78,44.78,0,0,1,4.84.18,16.07,16.07,0,0,1,5,1.24,6.56,6.56,0,0,1,1.15.59,8.85,8.85,0,0,1,1.07.68A11.8,11.8,0,0,1,315,234a22,22,0,0,1,2.41,3.54c.66,1.17,1.25,2.29,1.89,3.29a15.48,15.48,0,0,0,2.08,2.61,9.65,9.65,0,0,0,4.29,2.64A18.16,18.16,0,0,0,327.62,246.41Z" transform="translate(-37.18 -3.86)"/><path class="cls-9" d="M330.45,251.45s-.27-.13-.65-.45a11,11,0,0,1-1.41-1.52,10.9,10.9,0,0,1-2.27-6.06,10.77,10.77,0,0,1,1.69-6.19,10.23,10.23,0,0,1,1.27-1.61c.35-.35.57-.52.6-.5s-.68.83-1.48,2.27a11.43,11.43,0,0,0-1.47,6,11.61,11.61,0,0,0,2,5.89C329.69,250.67,330.53,251.39,330.45,251.45Z" transform="translate(-37.18 -3.86)"/><path class="cls-15" d="M492.64,387.42c8,2.37,18.53.25,25.41-4s11.82-10.3,16.21-16.45c1.87-2.62,3.7-5.36,4.29-8.38a8.2,8.2,0,0,0-3.06-8.39c-4.32-3.07-10.94-1.51-15.85.84-15.36,7.37-25.85,21.5-27,36.36" transform="translate(-37.18 -3.86)"/><path class="cls-15" d="M501.27,403.64c4.83,5.36,13.13,7.75,21.11,8.07s15.88-1.55,23.34-4c2.71-.87,5.67-2.07,6.6-4.39a5,5,0,0,0-1.41-5.18,14.09,14.09,0,0,0-5.39-3.09c-7.35-2.64-15.77-2.76-23.5-1.07s-14.48,5.46-20.75,9.63" transform="translate(-37.18 -3.86)"/><path class="cls-15" d="M492.52,358.39c6.66.12,11.69-4.8,14.71-9.8a31.28,31.28,0,0,0,4-22.65c-.61-2.87-1.89-6-4.94-7.34s-7.11-.48-9.71,1.52a16.33,16.33,0,0,0-5.05,7.67c-3.57,9.74-2.8,20.93,1,30.6" transform="translate(-37.18 -3.86)"/><path class="cls-15" d="M470.66,389.42c11.35-16.28,13.24-36.19,6.53-54.2-1.08-2.92-3.13-6.27-6.76-6.46-4-.22-6.54,3.56-7.64,6.82-3.9,11.43-3.07,23.58-2.21,35.46a23.75,23.75,0,0,0,10.08,18.38" transform="translate(-37.18 -3.86)"/><path class="cls-15" d="M458.86,396.11c-4.12-11.15-14.58-20.5-27.54-24.61-3-.95-6.85-1.5-9.09.44s-1.53,5.1-.12,7.48c2.29,3.84,6,6.93,9.69,9.89,3.37,2.7,6.86,5.4,11.11,7s12.06,2,15.95-.17" transform="translate(-37.18 -3.86)"/><path class="cls-6" d="M529.21,354.3l-.19.15c-.17.1-.37.23-.61.4L526,356.34l-1.73,1.08c-.62.4-1.27.87-2,1.36-1.4,1-3.06,2.05-4.73,3.39l-2.68,2.05c-.92.71-1.82,1.52-2.78,2.32-1.95,1.59-3.84,3.43-5.88,5.34a118.36,118.36,0,0,0-11.7,13.44,109.83,109.83,0,0,0-9,14.84c-1.12,2.38-2.23,4.64-3,6.82-.42,1.08-.88,2.11-1.22,3.13l-1,2.93c-.68,1.86-1.06,3.59-1.49,5.09-.19.75-.4,1.45-.55,2.1s-.26,1.24-.37,1.78c-.22,1-.4,1.86-.53,2.46l-.15.64a1,1,0,0,1-.07.22.79.79,0,0,1,0-.23c0-.17.06-.38.09-.64.11-.61.25-1.43.43-2.48l.33-1.79c.13-.65.33-1.36.51-2.11.4-1.51.76-3.25,1.41-5.12l1-2.95c.34-1,.79-2.06,1.2-3.15.79-2.2,1.9-4.46,3-6.86a107.16,107.16,0,0,1,9-14.91,115.82,115.82,0,0,1,11.79-13.48c2.05-1.91,4-3.75,5.94-5.33,1-.8,1.87-1.6,2.81-2.32l2.71-2c1.69-1.33,3.37-2.38,4.8-3.35.72-.48,1.38-.94,2-1.33l1.75-1.05,2.44-1.43.65-.36A.85.85,0,0,1,529.21,354.3Z" transform="translate(-37.18 -3.86)"/><path class="cls-6" d="M544.24,399.41a4.15,4.15,0,0,1-.78-.11c-.5-.07-1.24-.24-2.21-.38a74.47,74.47,0,0,0-8.21-.84,71.42,71.42,0,0,0-26.69,3.78,61.68,61.68,0,0,0-22,13.29,53.81,53.81,0,0,0-5.08,5.5c-.57.68-.95,1.23-1.24,1.59a3.1,3.1,0,0,1-.46.54,4.52,4.52,0,0,1,.37-.59c.26-.37.61-.94,1.16-1.63a46.43,46.43,0,0,1,5-5.62,60.43,60.43,0,0,1,22.08-13.5,70.1,70.1,0,0,1,26.91-3.68,64.63,64.63,0,0,1,8.24,1c1,.17,1.69.36,2.19.46A6,6,0,0,1,544.24,399.41Z" transform="translate(-37.18 -3.86)"/><path class="cls-6" d="M502.33,325.1a.68.68,0,0,1,0,.25c-.05.19-.11.43-.18.73l-.75,2.8c-.65,2.44-1.65,5.94-2.9,10.28-2.5,8.66-6.14,20.59-9.92,33.81-1.88,6.61-3.58,12.93-5.05,18.69s-2.67,11-3.58,15.36c-.49,2.19-.86,4.18-1.21,5.93s-.63,3.25-.85,4.48-.39,2.16-.52,2.84l-.15.73a1,1,0,0,1-.07.25.94.94,0,0,1,0-.25c0-.19.05-.44.09-.74.11-.69.25-1.64.43-2.85s.42-2.75.75-4.5.67-3.75,1.13-5.94c.87-4.4,2.06-9.62,3.48-15.39s3.13-12.1,5-18.72c3.79-13.22,7.48-25.14,10.07-33.78,1.29-4.3,2.33-7.79,3.07-10.24.36-1.18.64-2.11.84-2.78.1-.3.17-.53.23-.72A1.13,1.13,0,0,1,502.33,325.1Z" transform="translate(-37.18 -3.86)"/><path class="cls-6" d="M476.27,419.94s0-.06-.07-.19-.09-.35-.16-.59c-.14-.56-.32-1.31-.56-2.27-.48-2-1.12-4.82-1.84-8.36a268.83,268.83,0,0,1-4.24-27.85c-.52-5.47-.8-10.7-.93-15.45s0-9,.13-12.63c0-1.79.19-3.42.29-4.84s.2-2.65.31-3.65.19-1.74.26-2.31c0-.24.05-.44.07-.6a.91.91,0,0,1,.05-.2.67.67,0,0,1,0,.21q0,.24,0,.6c0,.56-.08,1.34-.15,2.31s-.17,2.23-.22,3.65-.18,3.05-.21,4.84c-.13,3.59-.14,7.87,0,12.61s.46,10,1,15.42c1.06,10.92,2.72,20.75,4.08,27.83.68,3.55,1.26,6.41,1.68,8.39.19,1,.34,1.72.46,2.28,0,.24.08.44.1.6S476.28,419.94,476.27,419.94Z" transform="translate(-37.18 -3.86)"/><path class="cls-6" d="M477.11,422a2.8,2.8,0,0,1-.29-.56l-.75-1.64-.53-1.18-.73-1.38-.84-1.58c-.29-.56-.67-1.12-1-1.73s-.75-1.24-1.16-1.9l-1.38-2c-.91-1.4-2.09-2.8-3.22-4.32a108.46,108.46,0,0,0-8.55-9.2,125.79,125.79,0,0,0-9.81-8.27c-1.63-1.16-3.13-2.32-4.63-3.29L442,383.51l-2-1.26c-1.29-.83-2.5-1.51-3.57-2.12s-2-1.13-2.75-1.52l-1.76-.94a3.74,3.74,0,0,1-.59-.35,4.16,4.16,0,0,1,.65.28l1.81.86c.79.37,1.74.87,2.81,1.46s2.31,1.26,3.62,2.07l2.07,1.25,2.17,1.42c1.53,1,3,2.12,4.69,3.28a118.55,118.55,0,0,1,9.88,8.28,101.27,101.27,0,0,1,8.55,9.27c1.14,1.54,2.31,2.94,3.21,4.36l1.36,2,1.13,1.92c.35.61.72,1.18,1,1.75s.55,1.1.8,1.6l.69,1.4c.18.43.34.83.49,1.2.27.69.49,1.25.66,1.67A2.7,2.7,0,0,1,477.11,422Z" transform="translate(-37.18 -3.86)"/><path class="cls-6" d="M525,373.17c0,.08-1.38.08-3.59.18a80.15,80.15,0,0,0-8.57.87,78,78,0,0,0-8.35,1.84c-2.1.58-3.37,1-3.41.94a4,4,0,0,1,.85-.39c.57-.23,1.4-.52,2.44-.85a58.63,58.63,0,0,1,8.37-2,60.68,60.68,0,0,1,8.66-.75c1.11,0,2,0,2.63,0A4.59,4.59,0,0,1,525,373.17Z" transform="translate(-37.18 -3.86)"/><path class="cls-6" d="M533.57,408.41a27.4,27.4,0,0,0-4.67-5.94,32.77,32.77,0,0,0-6.69-4.36,8.43,8.43,0,0,1,2.31.86,20.27,20.27,0,0,1,4.77,3.19,17.24,17.24,0,0,1,3.43,4.25A6.05,6.05,0,0,1,533.57,408.41Z" transform="translate(-37.18 -3.86)"/><path class="cls-6" d="M504.37,338.31c.11.1-2,1.84-4.26,4.21s-3.9,4.43-4,4.36a19.56,19.56,0,0,1,3.62-4.65A21.78,21.78,0,0,1,504.37,338.31Z" transform="translate(-37.18 -3.86)"/><path class="cls-6" d="M497.52,328.33a14.8,14.8,0,0,1,1,3.78,14.37,14.37,0,0,1,.51,3.85,14.56,14.56,0,0,1-1-3.78A14.1,14.1,0,0,1,497.52,328.33Z" transform="translate(-37.18 -3.86)"/><path class="cls-6" d="M476.29,359.64a43.93,43.93,0,0,1-3.33,5.89,46.68,46.68,0,0,1-3.79,5.69,43.13,43.13,0,0,1,3.32-5.89A47.39,47.39,0,0,1,476.29,359.64Z" transform="translate(-37.18 -3.86)"/><path class="cls-6" d="M463.65,349a27.16,27.16,0,0,1,2.82,4.26,23.62,23.62,0,0,1,2.33,4.47,26.73,26.73,0,0,1-2.81-4.26A24.07,24.07,0,0,1,463.65,349Z" transform="translate(-37.18 -3.86)"/><path class="cls-6" d="M445.08,385.37c0,.13-2.29-.24-5.1-.41s-5.1-.07-5.11-.2a17.18,17.18,0,0,1,5.15-.25A16.7,16.7,0,0,1,445.08,385.37Z" transform="translate(-37.18 -3.86)"/><path class="cls-6" d="M457.76,417.51l6.32,28a4.53,4.53,0,0,0,4.58,3.19h18.66a4.48,4.48,0,0,0,4.59-3.28l5.5-27.9Z" transform="translate(-37.18 -3.86)"/><polygon class="cls-12" points="422.64 422.74 458.33 422.74 460.23 413.64 420.59 413.64 422.64 422.74"/><polygon class="cls-16" points="422.64 422.74 423.39 426.06 457.79 426.06 458.33 422.74 422.64 422.74"/></svg>